<?xml version="1.0" standalone="no"?>
<!DOCTYPE svg PUBLIC "-//W3C//DTD SVG 20010904//EN"
 "http://www.w3.org/TR/2001/REC-SVG-20010904/DTD/svg10.dtd">
<svg version="1.0" xmlns="http://www.w3.org/2000/svg"
 width="1280.000000pt" height="730.000000pt" viewBox="0 0 1280.000000 730.000000"
 preserveAspectRatio="xMidYMid meet">
<g transform="translate(0.000000,730.000000) scale(0.100000,-0.100000)"
fill="#291711" stroke="none">
<path d="M12155 7295 c-5 -3 -120 -14 -255 -25 -349 -29 -432 -43 -595 -99
-77 -27 -174 -56 -215 -66 -85 -21 -304 -132 -690 -350 -135 -76 -290 -162
-344 -191 -55 -30 -106 -60 -115 -68 -9 -8 -104 -74 -211 -148 -107 -74 -246
-171 -308 -216 -195 -141 -336 -218 -737 -401 -143 -66 -290 -136 -325 -156
-70 -40 -164 -84 -245 -116 -133 -53 -723 -421 -868 -541 -26 -22 -55 -38 -65
-36 -19 3 -72 100 -72 133 0 14 24 41 70 79 39 33 70 67 70 77 0 9 17 39 37
66 69 90 89 190 61 300 -10 43 -10 47 12 65 22 18 22 19 5 38 -19 21 -13 40
13 40 9 0 63 -14 120 -32 88 -27 107 -30 124 -19 11 7 50 16 87 21 137 17 223
49 202 74 -18 21 5 36 67 46 106 18 145 40 277 160 44 40 112 96 150 125 89
67 136 115 111 115 -28 0 -55 -18 -157 -104 -219 -185 -318 -256 -356 -256
-20 0 -23 5 -23 35 0 49 -23 46 -72 -10 -43 -49 -61 -54 -90 -28 -18 16 -21
16 -47 0 -40 -24 -60 -21 -71 8 -13 33 -31 32 -58 -5 -15 -19 -31 -30 -47 -30
-30 0 -32 20 -8 61 31 52 3 44 -48 -13 -51 -58 -77 -72 -160 -83 -70 -10 -78
7 -39 87 l31 63 -34 -39 c-52 -59 -89 -33 -53 37 14 26 14 27 -6 16 -18 -9
-24 -8 -35 7 -7 10 -13 22 -13 27 0 5 -13 6 -29 2 -33 -7 -46 11 -28 42 64
110 64 112 59 276 -2 73 -3 78 -28 87 -14 6 -28 19 -31 30 -3 11 -9 20 -13 20
-13 0 -20 -71 -20 -215 0 -77 -4 -154 -9 -171 -5 -17 -37 -69 -72 -116 -35
-46 -88 -119 -117 -162 -51 -74 -75 -96 -90 -81 -4 4 21 61 56 127 34 67 61
123 59 124 -2 2 -36 -46 -75 -106 -39 -61 -76 -110 -82 -110 -20 0 -10 41 30
120 22 44 40 87 40 96 0 29 -25 8 -52 -44 -15 -29 -51 -78 -82 -108 -50 -50
-57 -54 -76 -42 -25 16 -33 6 -56 -70 -17 -58 -50 -86 -112 -98 -46 -9 -291
16 -326 32 -23 11 -37 12 -66 3 -50 -15 -70 -3 -109 66 -25 44 -38 57 -62 62
-18 3 -41 20 -57 40 -15 19 -50 45 -77 57 -28 13 -70 35 -94 50 -23 15 -45 25
-48 22 -7 -7 38 -63 86 -109 23 -21 41 -43 41 -48 0 -17 -37 -9 -56 12 -10 12
-51 46 -91 75 -81 60 -145 135 -178 209 -13 28 -46 82 -74 120 l-52 70 7 102
c8 122 -2 135 -63 84 -21 -18 -43 -36 -50 -41 -20 -16 18 -164 55 -213 69 -92
84 -116 77 -126 -9 -16 -47 -13 -73 5 -13 9 -30 13 -40 9 -12 -5 -6 -12 28
-31 51 -28 70 -49 70 -76 0 -30 -40 -21 -80 20 -20 20 -39 42 -41 48 -5 15
-49 28 -49 16 0 -6 31 -38 70 -72 71 -63 92 -96 69 -110 -19 -13 -38 -2 -125
72 -45 37 -84 68 -88 68 -17 0 -1 -19 49 -58 55 -43 69 -74 40 -86 -19 -7 -49
4 -112 43 -64 39 -77 39 -34 0 31 -28 33 -32 18 -47 -20 -19 -49 -8 -112 43
-51 42 -84 47 -36 5 23 -20 32 -34 27 -45 -8 -22 -23 -16 -91 36 l-54 41 -40
-19 c-33 -15 -39 -22 -34 -40 7 -29 -10 -30 -62 -3 -22 11 -49 20 -61 20 -12
0 -99 51 -193 113 -94 61 -197 129 -230 150 -58 36 -91 46 -91 27 0 -13 85
-79 170 -131 39 -24 99 -63 133 -86 34 -23 99 -67 144 -97 45 -30 89 -66 99
-81 21 -33 64 -55 104 -55 18 0 33 -6 36 -15 4 -8 12 -15 19 -15 22 0 125 49
125 60 0 6 16 18 35 27 28 13 37 14 49 3 20 -16 12 -28 -33 -48 -31 -14 -33
-17 -14 -20 12 -2 63 15 113 37 169 77 218 50 60 -33 -110 -58 -100 -73 16
-22 99 43 130 51 139 35 5 -7 -7 -24 -31 -45 -39 -33 -39 -33 -12 -34 26 0 27
-1 31 -82 3 -58 12 -103 30 -148 14 -36 36 -92 48 -124 18 -46 44 -82 111
-153 48 -51 91 -105 94 -119 15 -58 -36 -56 -162 5 -141 68 -474 251 -684 376
-113 67 -252 148 -310 180 -58 32 -168 94 -245 138 -281 159 -355 195 -778
378 -49 21 -116 55 -150 77 -34 21 -111 65 -172 97 -60 32 -141 77 -180 100
-38 23 -108 65 -155 93 -47 28 -155 85 -240 126 -250 122 -457 237 -590 326
-392 264 -467 293 -830 311 -557 29 -666 23 -767 -38 -32 -19 -68 -44 -81 -56
-12 -12 -44 -33 -69 -47 -34 -18 -54 -38 -70 -70 -21 -41 -22 -50 -11 -100 10
-48 9 -60 -7 -93 -14 -31 -15 -40 -4 -53 10 -12 10 -22 0 -51 -10 -25 -10 -38
-2 -46 18 -18 13 -33 -16 -47 -25 -12 -26 -14 -8 -18 35 -7 45 -23 45 -71 0
-55 -7 -66 -43 -80 -35 -14 -36 -35 0 -28 39 7 68 -27 77 -93 6 -45 4 -56 -10
-67 -10 -7 -16 -14 -13 -15 2 -2 13 -8 24 -14 12 -7 19 -21 18 -33 -2 -12 5
-25 16 -31 27 -14 37 -52 50 -181 7 -63 16 -143 22 -177 7 -49 7 -68 -3 -79
-10 -12 -8 -18 12 -33 21 -16 23 -21 13 -42 -16 -32 -11 -93 10 -116 26 -28
21 -51 -20 -88 l-37 -34 32 0 c42 0 52 -24 23 -54 -15 -15 -19 -26 -12 -31 6
-3 11 -4 11 0 0 3 9 1 20 -5 27 -14 25 -34 -5 -58 -31 -24 -31 -30 -3 -34 24
-3 28 -28 13 -75 -5 -17 -1 -24 22 -35 23 -11 28 -20 28 -51 0 -26 6 -41 18
-48 11 -7 17 -22 17 -45 0 -27 5 -37 25 -46 14 -6 28 -23 32 -37 3 -14 13 -34
21 -44 12 -14 13 -22 4 -43 -15 -32 -15 -34 4 -34 55 0 121 -87 110 -146 -5
-26 -4 -34 8 -34 38 0 106 -85 106 -133 0 -14 13 -35 30 -51 17 -15 33 -40 37
-57 3 -16 18 -38 34 -50 16 -11 32 -35 37 -52 5 -22 18 -36 39 -46 17 -7 40
-31 52 -51 12 -21 27 -40 35 -43 8 -3 22 -24 32 -47 13 -29 30 -48 57 -61 48
-25 106 -78 141 -128 18 -26 39 -42 57 -46 17 -4 50 -22 75 -42 26 -19 80 -46
122 -59 41 -14 134 -54 207 -89 73 -36 142 -65 153 -65 33 0 53 -11 62 -35 7
-18 19 -24 60 -30 43 -6 55 -12 68 -35 15 -25 21 -28 71 -27 39 0 83 -10 141
-31 101 -37 112 -55 53 -90 -21 -13 -60 -41 -88 -63 -27 -21 -114 -71 -192
-109 -78 -39 -154 -84 -170 -100 -40 -41 -78 -90 -96 -125 -15 -31 -102 -117
-147 -147 -25 -16 -25 -16 -5 -32 16 -12 18 -18 9 -33 -6 -10 -9 -32 -7 -48 3
-21 -3 -41 -21 -68 -22 -32 -24 -41 -14 -57 10 -15 10 -26 0 -52 -8 -21 -8
-36 -2 -42 16 -16 11 -49 -10 -76 -19 -25 -19 -25 1 -41 21 -15 20 -16 -23
-58 l-43 -42 39 7 c47 8 58 -5 43 -52 -8 -28 -7 -37 6 -52 32 -36 21 -66 -43
-122 -56 -49 -72 -70 -51 -70 4 0 25 14 46 30 48 38 71 36 69 -7 -1 -23 3 -33
17 -36 29 -8 23 -43 -11 -67 -42 -30 -39 -50 7 -47 32 2 38 -2 41 -19 2 -11
-11 -37 -28 -59 -21 -26 -27 -41 -19 -44 7 -2 22 8 34 23 23 29 50 34 59 10
11 -30 6 -50 -24 -84 -39 -46 -40 -73 -1 -36 18 17 36 26 45 23 18 -7 21 -49
6 -77 -14 -27 -4 -45 33 -58 18 -6 40 -24 49 -40 9 -15 35 -49 58 -75 39 -44
42 -51 36 -87 -6 -42 3 -51 24 -25 35 42 120 -14 120 -79 0 -39 6 -42 44 -24
21 9 33 8 65 -7 50 -22 84 -57 75 -78 -3 -9 -21 -28 -40 -42 -19 -14 -34 -30
-34 -36 0 -18 27 -9 51 17 47 52 128 66 159 29 9 -10 7 -20 -6 -40 -9 -14 -15
-28 -12 -30 3 -3 26 4 52 16 79 35 136 9 90 -42 -24 -27 -13 -32 30 -14 21 9
57 15 79 13 36 -3 43 -7 51 -33 14 -41 13 -41 40 -12 29 31 43 33 92 12 23 -9
38 -24 45 -45 6 -16 12 -30 14 -30 1 0 18 6 37 14 39 17 64 7 54 -19 -7 -18
-7 -18 72 2 14 3 30 -1 42 -12 17 -15 23 -16 51 -4 30 12 33 11 53 -14 20 -25
24 -26 53 -15 26 10 37 9 58 -2 23 -12 30 -11 65 9 l39 22 21 -21 c25 -25 37
-25 52 0 19 30 45 25 53 -10 4 -17 9 -30 12 -30 3 0 23 16 45 36 43 38 61 40
66 6 5 -36 25 -26 86 43 64 73 99 85 110 39 9 -34 20 -28 59 31 38 59 72 71
83 31 7 -31 19 -26 29 11 9 39 44 73 73 73 23 0 24 -3 20 -50 -1 -28 -2 -50 0
-50 2 0 18 33 37 74 37 82 74 117 100 96 8 -7 15 -21 15 -31 0 -33 19 -20 45
31 27 53 44 63 52 30 8 -29 19 -25 30 13 8 28 13 32 43 32 33 0 35 2 47 48 6
26 25 63 42 82 20 24 34 53 42 95 14 74 30 100 52 82 19 -16 20 -14 47 78 24
82 62 150 85 150 12 0 13 -15 9 -82 -7 -113 9 -83 31 56 26 172 76 301 113
294 20 -4 22 -66 8 -203 -7 -64 -6 -78 4 -68 7 6 18 67 26 140 21 197 51 300
93 322 14 8 22 7 31 -4 9 -11 6 -47 -14 -169 -27 -159 -33 -240 -16 -201 5 11
26 117 46 235 38 224 55 285 76 278 22 -7 21 -45 -5 -171 -31 -149 -41 -237
-27 -237 5 0 10 1 10 3 0 1 20 119 44 262 45 266 63 335 90 335 23 0 20 -50
-9 -161 -28 -106 -28 -109 -16 -109 10 0 20 36 66 247 42 190 74 256 91 189 5
-21 -28 -315 -42 -371 -5 -22 10 -44 19 -28 5 8 29 206 47 383 17 173 40 250
75 250 11 0 15 -12 15 -47 0 -62 8 -50 21 28 13 86 18 99 35 99 11 0 14 -16
13 -72 -1 -103 -17 -160 -51 -176 -30 -14 -32 -19 -53 -186 -9 -73 -12 -123
-6 -129 6 -6 14 14 21 49 6 33 22 82 34 109 24 53 67 220 116 455 36 175 48
220 59 220 17 0 21 -88 21 -525 1 -487 13 -913 30 -1011 5 -34 23 -91 40 -125
17 -38 37 -109 49 -174 11 -60 36 -159 55 -218 20 -60 36 -117 36 -127 0 -11
23 -63 50 -115 28 -52 50 -100 50 -106 0 -5 20 -63 44 -127 24 -64 56 -162 70
-217 15 -55 47 -141 71 -192 25 -51 49 -111 54 -135 6 -23 18 -48 28 -56 10
-7 35 -28 56 -47 35 -32 43 -35 100 -35 36 0 74 -7 91 -15 33 -17 50 -9 60 30
4 15 16 27 31 31 13 3 27 15 30 25 4 10 18 21 33 24 15 4 41 13 59 22 17 8 36
12 43 8 16 -10 57 2 63 19 3 8 1 28 -5 44 -10 27 -8 35 15 71 34 51 73 175 82
261 3 36 22 105 41 153 19 49 34 96 34 106 0 9 20 62 45 119 26 61 51 139 60
190 9 48 32 134 52 192 19 58 51 179 70 270 42 204 49 334 34 639 -7 137 -8
228 -2 234 5 5 24 12 43 16 l33 7 -4 185 c-3 178 1 229 19 229 13 0 19 -40 30
-177 6 -70 13 -141 16 -158 6 -26 8 -27 14 -10 11 32 -8 290 -30 403 -15 77
-17 109 -9 123 6 11 16 18 22 16 22 -7 58 -85 71 -157 16 -83 22 -92 35 -57 7
17 16 25 25 21 30 -12 44 -68 50 -214 4 -80 11 -176 16 -215 5 -38 10 -113 10
-165 1 -52 6 -104 11 -115 14 -31 2 367 -14 453 -15 76 -8 99 26 86 34 -13 47
-102 67 -456 9 -172 23 -284 35 -296 17 -17 17 30 1 201 -26 282 -28 311 -18
325 12 18 35 7 55 -27 12 -21 17 -52 17 -116 0 -48 7 -129 15 -179 8 -50 17
-130 20 -178 4 -51 11 -88 17 -88 10 0 8 87 -8 323 -6 73 -4 87 8 87 67 0 110
-196 113 -507 1 -117 5 -216 9 -220 22 -22 27 34 21 242 -3 121 -7 231 -8 245
-1 19 3 25 18 25 14 0 30 -19 55 -66 19 -36 48 -84 64 -107 29 -43 42 -103 65
-321 6 -52 15 -99 21 -105 14 -14 13 31 -5 129 -21 114 -20 127 7 123 17 -2
32 -21 57 -71 33 -63 34 -70 22 -103 -8 -22 -10 -54 -6 -87 13 -104 37 -221
50 -246 l14 -26 1 26 c0 15 -7 62 -15 105 -8 44 -16 108 -17 144 -3 53 0 65
14 68 25 5 82 -121 119 -264 39 -149 48 -167 49 -91 0 32 4 57 10 57 6 0 25
-21 43 -47 61 -91 134 -151 252 -208 114 -54 181 -79 250 -90 22 -4 72 -19
110 -34 39 -16 108 -33 155 -40 306 -40 462 -44 593 -12 231 55 555 182 658
257 26 19 73 46 105 61 78 36 215 134 290 208 108 107 217 265 268 389 25 61
50 129 54 151 5 22 21 81 34 130 81 290 86 426 21 522 -14 21 -39 76 -54 121
-67 199 -161 336 -361 525 -91 87 -129 130 -125 141 8 20 60 42 162 68 44 11
105 35 135 53 30 18 136 74 235 124 139 71 203 111 280 173 129 105 308 288
395 403 38 49 77 95 88 102 11 7 23 27 27 45 4 18 20 53 35 78 44 71 98 191
106 235 8 49 25 84 53 109 15 14 21 31 21 60 0 42 31 166 56 224 8 18 14 46
14 63 0 21 9 39 32 59 25 23 29 32 20 43 -9 11 -9 22 3 50 8 20 15 55 15 77 0
58 14 78 62 91 l42 11 -27 20 c-46 33 -34 78 26 93 32 8 34 19 9 37 -27 19
-32 43 -15 68 13 18 22 21 49 17 42 -7 43 2 4 36 -16 15 -30 36 -30 47 0 23
36 50 67 50 24 0 53 24 53 44 0 7 -13 27 -30 44 -16 18 -30 41 -30 52 0 21 35
63 60 72 11 3 10 10 -5 35 -26 45 -15 63 40 63 52 0 58 13 16 34 -16 9 -31 23
-35 31 -9 24 11 54 39 61 31 8 31 21 3 52 -23 23 -23 24 -4 38 11 8 26 14 33
14 17 0 17 2 -8 50 -27 51 -20 84 21 98 36 13 38 24 6 42 -49 26 -44 60 9 60
41 0 67 9 59 21 -3 5 -16 9 -28 9 -13 0 -36 10 -51 21 -23 19 -26 27 -20 53 4
17 8 60 9 96 l1 65 38 3 c20 2 37 8 37 13 0 16 -50 89 -61 89 -16 0 -109 91
-126 124 -9 18 -13 42 -10 63 3 18 3 33 -1 34 -4 0 -21 2 -39 3 -18 2 -49 17
-70 34 -21 16 -66 46 -100 66 -56 33 -68 36 -135 35 -40 0 -77 -2 -83 -4z
m-480 -120 c0 -15 8 -21 29 -23 18 -2 30 -11 34 -24 4 -16 10 -19 36 -14 193
40 517 69 530 48 12 -20 -22 -31 -164 -57 -219 -39 -330 -76 -257 -87 29 -4
26 -20 -6 -36 -29 -14 -223 -45 -422 -67 -75 -9 -156 -20 -179 -25 -22 -5
-108 -21 -191 -35 -82 -14 -216 -39 -298 -56 -81 -16 -152 -27 -158 -24 -13 9
6 32 51 60 39 24 371 158 495 200 143 48 259 96 294 122 42 32 80 42 151 40
48 -2 55 -5 55 -22z m-10379 -36 c58 -15 51 -32 -16 -42 -63 -9 -67 -11 -50
-32 8 -9 29 -15 59 -15 106 0 312 -88 492 -211 94 -63 82 -69 -87 -44 -54 8
-117 15 -139 14 l-40 -1 30 -13 c17 -8 43 -14 59 -15 16 0 83 -11 150 -25 142
-28 328 -96 412 -150 32 -21 110 -62 171 -91 142 -66 221 -119 229 -150 8 -32
48 -64 144 -115 44 -24 80 -49 80 -56 0 -20 -46 -16 -187 16 -451 104 -1122
218 -1413 240 -339 26 -927 23 -1021 -4 -8 -3 -24 1 -35 9 -17 13 -19 27 -19
148 1 185 13 274 40 306 21 24 21 28 8 49 -29 44 13 66 162 83 157 17 247 11
206 -15 -5 -3 -58 -12 -118 -20 -110 -15 -163 -30 -163 -46 0 -13 -12 -11 185
-18 171 -6 180 -7 180 -26 0 -18 -9 -20 -110 -26 -60 -4 -118 -7 -129 -8 -16
-1 -15 -4 8 -22 20 -16 24 -24 16 -39 -9 -16 -3 -19 60 -25 65 -7 72 -5 100
19 49 41 99 51 182 38 38 -6 77 -8 85 -5 26 10 7 26 -53 43 -70 19 -84 26 -84
45 0 69 490 92 612 29 25 -13 29 -13 35 2 9 23 -10 31 -96 39 -49 5 -91 16
-121 31 -39 20 -69 25 -214 35 -93 6 -181 15 -195 21 -24 9 -25 10 -8 23 31
22 167 29 229 11 36 -10 65 -13 84 -8 16 5 40 5 54 1 47 -13 99 -9 132 11 39
23 36 23 94 9z m-865 -30 c27 -14 14 -29 -27 -29 -23 0 -34 5 -34 14 0 24 31
32 61 15z m12059 -18 c14 -10 33 -32 43 -49 16 -27 16 -31 2 -46 -13 -13 -40
-16 -138 -16 -67 0 -166 -3 -219 -7 -88 -5 -98 -4 -98 11 0 23 29 32 140 44
90 10 97 13 125 45 17 19 37 37 45 40 23 9 72 -2 100 -22z m-10947 -37 c92
-46 127 -70 127 -86 0 -18 -42 -6 -142 42 -97 45 -127 68 -111 84 13 12 36 5
126 -40z m11040 -118 c9 -5 17 -17 17 -27 0 -11 10 -33 22 -50 25 -34 17 -62
-21 -67 -25 -4 -27 -15 -7 -32 38 -31 46 -234 12 -313 l-14 -35 -178 5 c-229
6 -911 -13 -947 -26 -16 -6 -27 -18 -27 -29 0 -11 -9 -31 -21 -46 l-20 -26 48
0 c78 0 158 24 197 57 l34 31 274 7 c275 7 533 -4 611 -25 39 -12 50 -37 23
-59 -7 -6 -16 -37 -20 -68 -8 -69 -58 -269 -85 -338 -17 -45 -23 -51 -57 -58
-55 -11 -60 -21 -25 -46 44 -32 41 -59 -9 -78 l-40 -16 21 -23 c15 -16 20 -31
16 -51 -9 -48 -39 -127 -56 -146 -9 -11 -17 -44 -19 -82 -4 -61 -7 -67 -47
-104 -38 -35 -46 -38 -86 -35 -24 3 -134 13 -244 24 -222 21 -373 33 -731 55
-132 9 -256 20 -274 25 -25 7 -47 6 -84 -5 -35 -11 -97 -15 -206 -15 -210 0
-501 -15 -864 -45 -368 -31 -352 -31 -380 0 -17 18 -34 25 -60 25 -21 0 -46 5
-57 11 -16 8 -23 6 -38 -12 -10 -13 -38 -28 -61 -33 -24 -6 -45 -17 -48 -24
-3 -9 2 -10 22 -2 30 11 56 4 56 -16 0 -19 -37 -36 -84 -39 -23 -1 -70 -16
-106 -33 -138 -67 -490 -150 -685 -162 -66 -4 -133 -13 -150 -20 -65 -27 -96
-30 -113 -9 -9 10 -27 19 -39 19 -13 0 -23 6 -23 13 0 14 63 63 117 91 18 9
56 37 84 62 28 25 56 43 62 41 7 -2 11 -18 11 -36 -2 -37 20 -42 57 -12 13 10
42 24 64 31 22 7 119 50 216 96 96 46 190 87 207 90 35 7 48 19 33 29 -6 3
-28 -3 -50 -15 -134 -68 -326 -112 -347 -78 -15 24 107 93 269 154 60 22 103
46 135 74 26 23 106 79 177 125 72 46 144 96 161 109 44 36 116 76 136 76 9 0
26 -12 38 -27 12 -16 23 -23 26 -17 13 31 33 46 64 47 56 3 51 -27 -15 -100
-44 -49 -55 -68 -55 -96 0 -35 -13 -52 -54 -72 -17 -9 -22 -21 -24 -68 -3 -50
-7 -60 -33 -79 -17 -13 -29 -31 -29 -45 0 -27 3 -28 34 -8 19 13 28 14 50 3
33 -14 46 -1 46 47 0 40 51 126 95 163 33 27 35 30 16 35 -28 7 -26 21 4 41
85 56 238 82 695 121 157 13 394 34 527 46 205 19 248 21 281 10 34 -12 42
-11 66 4 15 10 41 21 59 25 77 19 -333 4 -563 -20 -52 -5 -187 -17 -300 -25
-281 -21 -395 -33 -533 -56 -124 -21 -146 -18 -167 21 -14 26 -13 85 4 123 7
18 34 62 60 100 74 104 142 136 400 186 248 49 449 79 661 101 110 12 207 23
215 25 8 2 100 11 203 20 202 17 281 33 167 34 -86 1 -338 -17 -423 -29 -37
-6 -123 -15 -190 -20 -131 -11 -189 -19 -511 -74 -116 -20 -220 -36 -233 -36
-62 0 7 70 209 209 259 180 263 182 268 209 6 33 96 82 149 82 50 0 186 23
451 75 294 58 344 66 475 75 61 4 139 15 175 24 36 8 111 19 168 22 87 6 102
5 102 -8 0 -9 -22 -24 -57 -37 -57 -21 -121 -67 -109 -78 6 -7 146 36 161 49
17 15 45 9 45 -11 0 -13 -16 -25 -51 -40 -39 -17 -54 -30 -65 -57 -14 -34 -45
-46 -59 -24 -8 13 -56 13 -89 0 -21 -8 -56 -55 -56 -75 0 -3 12 1 28 8 15 8
61 17 102 21 41 4 92 11 113 17 32 8 37 14 37 38 0 34 12 45 69 62 34 10 47
20 57 45 9 20 24 35 46 43 18 7 56 23 83 36 28 14 61 27 75 29 40 7 313 0 333
-8z m-10793 -31 c7 -9 10 -18 7 -21 -11 -11 -57 6 -57 21 0 20 34 19 50 0z
m-1000 -490 c45 -19 92 -30 153 -35 48 -4 90 -10 93 -13 11 -10 -7 -27 -29
-28 -12 -1 11 -9 51 -19 84 -20 101 -32 82 -54 -16 -21 -6 -46 20 -46 13 0 20
7 20 19 0 10 9 30 20 44 l21 26 -41 12 c-58 18 -66 32 -40 69 19 26 27 30 69
30 180 0 1200 -173 1446 -246 44 -13 106 -30 137 -39 74 -20 112 -53 133 -115
9 -28 25 -55 36 -60 32 -17 43 -49 25 -69 -20 -22 -20 -35 -1 -65 14 -21 14
-24 0 -36 -10 -8 -28 -10 -53 -6 -130 23 -573 88 -707 105 -237 29 -305 35
-305 23 0 -13 27 -17 256 -42 100 -11 201 -24 225 -29 24 -5 100 -17 169 -26
338 -42 408 -62 470 -132 47 -54 130 -213 130 -251 0 -14 10 -36 21 -48 24
-26 21 -57 -9 -95 -17 -20 -27 -23 -88 -21 -38 0 -134 13 -214 27 -190 34
-277 42 -565 55 -251 10 -401 13 -394 6 14 -14 194 -28 454 -36 203 -5 323
-13 370 -23 39 -9 149 -25 245 -37 96 -12 201 -31 233 -42 32 -10 104 -26 160
-34 132 -19 147 -24 147 -39 0 -22 -58 -30 -360 -50 -242 -17 -680 -61 -688
-70 -8 -8 26 -6 208 10 91 7 266 16 390 20 254 7 456 27 546 56 33 10 83 19
111 19 51 0 462 -72 482 -85 6 -3 11 -12 11 -20 0 -15 -36 -27 -132 -44 -32
-6 -72 -18 -90 -27 -39 -20 -373 -141 -441 -159 -33 -9 -58 -10 -80 -4 -45 13
-49 12 -42 -10 8 -27 -10 -35 -157 -71 -154 -38 -689 -140 -734 -140 -18 0
-36 -4 -39 -10 -4 -6 18 -10 59 -10 65 0 584 96 756 140 47 12 113 25 148 30
44 6 78 18 114 41 28 18 99 49 157 70 58 20 147 51 196 70 151 55 266 51 760
-27 227 -36 226 -36 160 -14 -33 11 -105 25 -160 31 -55 6 -122 17 -149 25
-27 7 -106 18 -177 24 -139 11 -162 16 -156 34 6 19 80 56 112 56 40 0 228
-46 265 -65 17 -9 64 -20 107 -25 96 -12 289 -58 327 -78 26 -13 28 -16 14
-26 -15 -11 -14 -13 4 -25 29 -18 7 -30 -57 -32 -42 -1 -36 -3 41 -14 92 -12
114 -19 114 -35 0 -14 -29 -20 -134 -30 -127 -13 -179 -21 -172 -27 2 -3 41
-10 87 -16 45 -7 84 -17 86 -24 6 -17 -79 -31 -302 -48 -110 -8 -257 -22 -326
-31 -147 -18 -204 -16 -204 6 0 11 21 19 78 29 42 7 77 17 77 23 0 5 -12 7
-27 4 -16 -3 -77 -13 -137 -21 -60 -8 -111 -17 -114 -19 -2 -2 6 -10 18 -16
40 -21 7 -31 -139 -42 -134 -10 -145 -9 -206 11 -36 12 -69 20 -74 17 -17 -11
-43 6 -38 25 4 16 -1 19 -34 19 -21 0 -39 -3 -39 -7 0 -12 64 -53 83 -53 21 0
30 -15 14 -28 -6 -5 -79 -20 -162 -31 -82 -12 -189 -31 -237 -41 -48 -11 -147
-31 -219 -46 -73 -14 -184 -40 -248 -59 -128 -37 -261 -93 -223 -94 13 -1 35
5 50 13 36 18 521 138 692 172 113 22 157 25 275 23 125 -3 145 -1 185 18 37
17 85 24 265 37 121 9 269 21 328 26 59 5 115 6 123 3 28 -11 7 -28 -50 -42
-81 -19 -61 -26 34 -11 71 11 81 15 77 31 -7 25 9 35 68 43 40 5 59 2 90 -14
48 -24 62 -25 243 -3 108 12 146 13 154 5 33 -33 -55 -53 -267 -59 -164 -5
-184 -7 -231 -29 -40 -20 -83 -28 -208 -40 -87 -8 -178 -22 -203 -30 -25 -9
-66 -19 -92 -24 -25 -4 -82 -16 -126 -24 -44 -9 -98 -20 -120 -24 -29 -5 -39
-12 -37 -23 4 -24 -14 -33 -108 -58 -109 -29 -128 -40 -72 -41 35 0 43 -3 40
-17 -2 -11 -23 -23 -59 -34 -31 -9 -81 -30 -110 -47 -36 -20 -141 -53 -319
-101 -146 -39 -303 -82 -350 -96 -47 -15 -122 -37 -168 -50 -45 -13 -101 -33
-125 -43 -80 -37 -98 -42 -162 -42 -59 0 -85 -12 -52 -23 6 -2 -4 -12 -23 -21
-52 -26 -130 -80 -130 -90 0 -15 148 21 225 55 28 12 81 30 119 40 47 12 79
27 100 48 61 59 231 109 589 175 75 14 143 23 152 20 8 -4 18 -18 21 -33 4
-14 13 -34 22 -43 12 -14 12 -20 2 -33 -10 -13 -9 -15 8 -15 11 0 25 7 33 16
26 32 67 44 149 44 45 0 112 5 150 11 54 9 76 9 100 -1 47 -19 34 -40 -35 -59
-105 -29 -109 -48 -14 -59 45 -6 54 -10 54 -27 0 -18 -7 -20 -65 -22 -74 -3
-250 -33 -250 -44 0 -4 7 -10 16 -13 25 -10 0 -34 -50 -48 -79 -22 -64 -31 44
-24 118 7 357 49 373 65 15 15 2 14 -137 -9 -115 -20 -148 -17 -132 9 11 18
105 41 193 48 71 5 89 3 132 -16 27 -11 65 -21 83 -21 40 0 67 -15 53 -28 -15
-15 -374 -130 -425 -137 -73 -10 -210 -56 -210 -71 0 -42 -176 -83 -466 -107
-220 -19 -292 -10 -566 75 -100 30 -115 62 -43 92 20 9 34 20 30 26 -4 6 -22
1 -49 -15 -67 -39 -123 -43 -191 -11 -32 14 -87 33 -123 41 -35 8 -94 28 -131
44 -36 16 -84 32 -106 36 -22 4 -78 23 -125 42 -92 38 -136 55 -280 105 -77
27 -97 38 -108 61 -9 19 -21 27 -40 27 -36 1 -72 22 -87 51 -7 13 -28 28 -46
34 -20 7 -46 29 -64 53 -16 24 -49 56 -72 73 -37 26 -103 110 -103 130 0 13
43 39 65 39 12 0 120 25 241 55 257 65 422 98 594 121 147 19 221 15 280 -17
23 -13 54 -30 67 -38 14 -7 53 -16 86 -19 l62 -5 -16 23 c-26 40 -77 61 -130
54 -35 -5 -49 -2 -63 11 -16 16 -16 18 0 36 16 18 16 19 -13 19 -17 0 -66 -7
-109 -15 -44 -8 -151 -23 -238 -35 -195 -25 -479 -88 -643 -141 -128 -41 -182
-47 -222 -25 -43 24 -121 128 -166 221 -24 50 -66 121 -94 159 -54 73 -62 100
-33 114 58 31 388 90 737 132 204 25 225 28 225 42 0 25 -424 -29 -778 -98
-196 -39 -234 -39 -270 -1 -23 25 -100 183 -126 260 -27 79 -18 116 31 135 56
23 219 52 286 52 37 0 100 8 140 18 96 23 567 26 607 3 28 -16 248 -16 265 0
17 17 -9 43 -51 52 -43 9 -628 -8 -794 -23 -58 -6 -150 -19 -205 -30 -55 -11
-141 -23 -191 -26 -90 -7 -90 -7 -112 21 -14 18 -22 42 -22 69 0 22 -5 70 -10
106 -5 36 -14 135 -20 219 -5 84 -17 179 -25 212 -9 36 -13 74 -9 95 4 25 2
40 -9 52 -9 10 -21 40 -28 67 -7 28 -27 94 -45 148 -19 54 -34 111 -34 126 l0
28 88 7 c48 3 110 10 137 15 28 5 122 8 210 7 149 -3 164 -5 225 -31z m2215
-191 c64 -38 79 -54 66 -67 -22 -22 -151 55 -151 89 0 22 22 17 85 -22z m251
-141 c69 -38 172 -120 179 -143 3 -10 15 -22 26 -25 21 -7 25 -20 9 -30 -6 -4
-5 -13 3 -26 10 -16 9 -21 -2 -28 -19 -12 -32 -6 -132 61 -98 65 -114 81 -105
104 5 12 13 14 34 9 23 -5 20 0 -25 40 -78 68 -71 85 13 38z m-215 -59 c32
-20 59 -43 59 -50 0 -33 -95 -1 -130 44 -43 54 -12 57 71 6z m2399 -79 c0 -15
-6 -25 -14 -25 -16 0 -25 19 -18 38 8 22 32 13 32 -13z m-2302 -30 c29 -13 72
-30 95 -36 75 -20 234 -137 209 -153 -6 -3 -53 15 -106 40 -53 26 -99 44 -102
41 -3 -3 81 -47 188 -98 227 -110 316 -156 506 -264 114 -65 145 -87 162 -117
22 -40 61 -57 40 -18 -15 27 8 36 54 20 42 -14 60 -33 52 -58 -7 -22 -15 -17
158 -82 117 -43 134 -53 146 -85 6 -16 23 -25 62 -33 101 -23 195 -79 172
-102 -17 -17 -346 85 -385 118 -28 25 -183 91 -188 80 -8 -22 -55 -28 -135
-18 -44 5 -161 14 -259 20 -191 11 -263 20 -397 50 -47 11 -101 22 -122 25
-43 7 -55 28 -27 53 17 17 18 20 4 32 -8 7 -15 24 -15 39 0 43 -17 90 -44 122
-18 21 -24 38 -20 54 3 12 1 26 -5 29 -15 10 -14 46 2 47 6 1 21 0 32 -1 40
-4 0 18 -54 29 -62 13 -81 25 -81 53 0 25 21 31 66 19 21 -6 40 -8 43 -4 3 3
1 7 -4 9 -6 2 -32 19 -59 37 -45 29 -51 38 -64 90 -14 60 -11 87 10 87 7 0 37
-11 66 -25z m485 -37 c6 -18 -13 -56 -30 -62 -21 -9 -103 30 -103 48 0 14 10
16 107 24 12 1 23 -4 26 -10z m1817 -40 c0 -24 -26 -34 -45 -18 -18 15 -20 57
-2 63 17 6 47 -22 47 -45z m144 -6 c31 -33 28 -52 -9 -52 -44 0 -104 78 -79
103 10 9 55 -17 88 -51z m-1814 23 c83 -32 193 -98 245 -146 26 -24 64 -45
109 -59 52 -17 96 -44 191 -116 145 -109 147 -110 205 -119 97 -15 170 -69
137 -102 -13 -13 -18 -13 -45 1 -27 14 -31 14 -36 0 -3 -8 -1 -25 5 -36 15
-27 -2 -44 -29 -29 -11 6 -64 16 -118 22 -98 11 -102 12 -304 116 -306 157
-510 280 -510 308 0 32 33 26 118 -23 48 -27 98 -53 112 -57 76 -22 266 -126
366 -202 62 -45 115 -83 118 -83 4 0 6 8 4 17 -4 24 29 29 52 8 21 -19 130
-37 145 -24 5 5 0 9 -13 9 -62 0 -289 117 -312 161 -6 10 -28 28 -49 38 -21
11 -62 40 -91 65 -28 24 -86 65 -129 89 -105 62 -244 159 -249 175 -5 17 6 15
78 -13z m3345 15 c15 -24 -95 -180 -126 -180 -31 0 -10 51 60 148 30 41 53 52
66 32z m-2307 -22 c16 -16 15 -38 -2 -38 -18 0 -39 27 -31 40 8 13 18 13 33
-2z m2393 -14 c11 -13 11 -20 -2 -42 -20 -37 -53 -36 -57 1 -6 48 31 74 59 41z
m-3499 -60 c-5 -38 -7 -39 -37 -26 -31 14 -32 36 -2 50 32 15 42 9 39 -24z
m3556 -17 c4 -22 -27 -35 -38 -16 -10 15 7 42 24 36 6 -2 12 -11 14 -20z
m-3419 -41 c18 -19 29 -36 24 -38 -4 -3 -30 -2 -58 1 -39 5 -51 10 -53 25 -4
19 21 46 43 46 6 0 26 -15 44 -34z m1041 24 c0 -13 -52 -38 -67 -33 -7 3 -13
11 -13 18 0 7 6 16 13 18 22 9 67 7 67 -3z m2960 -5 c0 -8 -9 -15 -20 -15 -11
0 -20 7 -20 15 0 8 9 15 20 15 11 0 20 -7 20 -15z m-2272 -13 c4 -14 -61 -45
-86 -40 -22 4 -25 23 -6 42 19 20 85 18 92 -2z m2152 0 c25 -20 20 -42 -8 -42
-26 1 -102 38 -102 50 0 18 86 12 110 -8z m-166 -13 c53 -41 21 -64 -49 -35
-33 14 -44 34 -28 49 13 14 51 7 77 -14z m-1866 -28 c-2 -9 -29 -26 -66 -40
-34 -14 -62 -29 -62 -33 0 -5 8 -7 18 -4 84 24 204 48 217 42 34 -13 11 -40
-52 -61 -57 -19 -89 -35 -67 -35 5 0 51 7 102 15 52 7 100 11 108 8 24 -9 10
-28 -22 -31 -45 -4 -74 -12 -74 -20 0 -18 89 -60 139 -65 30 -4 61 -13 69 -21
13 -13 8 -22 -41 -73 -30 -32 -68 -80 -84 -108 l-30 -50 -64 2 c-57 2 -67 6
-89 32 -92 109 -119 137 -154 163 -21 15 -51 28 -65 28 -48 0 -56 13 -37 59 9
23 16 60 16 84 0 23 4 47 8 54 8 13 144 69 182 75 35 5 52 -2 48 -21z m-278
-15 c0 -25 -15 -37 -37 -28 -30 10 -11 49 25 51 6 1 12 -10 12 -23z m1382 -41
c-7 -15 -20 -25 -32 -25 -26 0 -25 11 1 44 27 34 49 21 31 -19z m-112 0 c0
-19 -20 -29 -32 -17 -8 8 -7 16 2 26 14 17 30 12 30 -9z m584 -9 c14 -9 26
-24 26 -33 0 -13 -7 -14 -42 -9 -24 4 -89 11 -144 15 -109 9 -124 14 -124 38
0 23 246 14 284 -11z m-259 -37 c154 -26 169 -34 173 -83 3 -34 -2 -44 -56
-99 -32 -34 -84 -97 -116 -139 -33 -45 -64 -78 -74 -78 -37 1 -121 58 -190
131 -39 41 -72 83 -72 92 0 36 45 50 139 45 49 -3 95 -2 102 3 14 8 6 11 -76
27 -25 5 -40 13 -40 22 0 12 25 16 125 20 127 5 144 20 24 20 -69 0 -104 12
-104 35 0 11 8 16 40 24 3 1 59 -8 125 -20z m-1605 -38 c0 -10 -7 -24 -16 -32
-13 -10 -17 -10 -24 1 -9 15 -2 41 14 52 14 9 26 0 26 -21z m1886 -14 c23 -20
28 -34 32 -83 3 -48 1 -63 -13 -74 -24 -20 -49 -1 -56 44 -3 20 -14 51 -24 70
-16 29 -17 37 -6 50 18 22 35 20 67 -7z m-1326 -23 c0 -11 -8 -14 -27 -12 -39
4 -42 28 -4 28 21 0 31 -5 31 -16z m423 -43 c50 -21 60 -43 46 -96 -15 -52
-44 -67 -125 -63 l-69 3 0 80 c0 76 1 79 25 86 44 12 77 10 123 -10z m1941 0
c12 -19 -101 -91 -144 -91 -48 0 -5 51 72 85 38 16 64 19 72 6z m-2146 -23 c7
-7 12 -25 12 -40 0 -37 -36 -39 -50 -3 -16 43 9 72 38 43z m-710 -52 c17 -9
32 -22 32 -28 0 -21 -43 -58 -66 -58 -29 0 -44 27 -44 78 0 46 8 57 29 38 9
-7 31 -21 49 -30z m1062 0 c0 -41 -23 -65 -45 -46 -28 23 -10 80 25 80 16 0
20 -7 20 -34z m1818 8 c-4 -24 -53 -58 -72 -51 -21 8 -12 29 22 50 35 21 54
22 50 1z m-1128 -35 c16 -28 3 -79 -23 -88 -28 -10 -97 19 -97 41 0 23 56 68
85 68 14 0 29 -9 35 -21z m3598 -58 c13 -7 21 -18 19 -24 -4 -12 -60 -30 -128
-41 -40 -7 -78 -31 -66 -42 13 -13 199 26 246 51 24 14 53 25 65 25 12 0 27 5
34 12 23 23 113 26 367 12 353 -20 823 -62 878 -80 17 -5 19 -13 14 -63 -5
-43 -12 -61 -30 -76 -20 -16 -23 -24 -15 -42 17 -36 2 -70 -37 -83 -40 -13
-42 -19 -15 -43 35 -30 24 -79 -22 -103 -29 -15 -29 -16 -12 -35 38 -42 11
-128 -49 -157 -32 -16 -33 -26 -8 -59 l20 -24 -33 -47 c-19 -26 -45 -70 -60
-99 -14 -28 -34 -54 -43 -56 -10 -3 -30 -8 -45 -11 -26 -6 -40 -26 -18 -26 5
0 14 -9 20 -21 9 -16 8 -26 -5 -45 -19 -30 -52 -31 -131 -3 -69 24 -360 101
-519 136 -60 14 -159 38 -220 54 -60 16 -175 41 -255 54 -80 14 -157 30 -172
36 -42 17 -35 42 20 72 l47 27 -45 0 c-25 0 -76 -12 -115 -25 -85 -30 -111
-31 -125 -5 -13 24 -31 25 -71 5 -28 -15 -39 -14 -169 15 -76 16 -223 44 -327
61 -228 37 -449 82 -523 108 -79 27 -183 48 -275 56 -44 4 -100 15 -125 25
-25 10 -84 21 -135 24 -76 5 -152 20 -262 52 -18 5 -25 1 -33 -21 -10 -27 -12
-27 -63 -20 -28 4 -85 10 -124 14 -85 8 -107 22 -72 44 36 22 200 49 319 52
58 2 141 8 185 14 44 5 143 15 220 21 77 6 150 13 163 15 32 8 64 -12 57 -35
-5 -15 -2 -17 14 -13 22 6 39 23 56 57 16 31 79 30 83 -1 4 -27 18 -29 60 -7
29 14 46 13 239 -16 114 -17 278 -35 363 -40 85 -5 178 -12 205 -16 28 -4 47
-4 44 0 -9 10 -94 23 -224 36 -183 17 -486 59 -525 72 -19 7 -53 12 -75 13
-42 0 -45 5 -60 78 -4 19 -12 27 -26 27 -15 0 -20 5 -17 23 4 28 38 34 72 12
22 -15 29 -15 68 -1 58 19 358 45 1013 85 182 12 354 8 383 -8z m-6033 -15
c11 -6 47 -28 80 -49 33 -21 116 -69 185 -106 94 -50 125 -72 125 -87 0 -28
-46 -22 -103 15 -73 47 -179 111 -195 117 -11 4 -13 -1 -10 -20 7 -34 -8 -34
-103 0 -50 18 -75 33 -80 46 -10 32 9 42 44 24 17 -9 41 -16 54 -15 17 0 9 7
-28 23 -56 26 -69 39 -60 62 7 17 53 12 91 -10z m1770 0 c26 -26 25 -56 -2
-56 -18 0 -76 30 -85 44 -10 16 11 36 39 36 13 0 35 -11 48 -24z m1495 -1 c0
-17 -34 -41 -72 -50 -24 -6 -28 -4 -28 13 0 11 10 27 23 35 29 21 77 22 77 2z
m-2416 -41 c16 -6 23 -44 8 -44 -14 0 -43 36 -35 43 8 8 8 8 27 1z m698 -56
c10 -33 19 -44 37 -46 13 -2 28 1 34 7 6 6 20 11 31 11 11 0 28 7 38 16 14 14
18 14 22 3 3 -8 21 -70 40 -139 31 -109 35 -130 25 -164 -14 -51 -2 -152 22
-193 18 -29 33 -121 41 -253 3 -38 7 -45 28 -50 21 -5 26 -13 28 -45 5 -55
-18 -268 -29 -280 -20 -20 -30 20 -24 92 3 41 2 74 -4 77 -22 14 -28 -116 -17
-394 8 -226 10 -237 35 -245 23 -7 41 -46 41 -88 0 -38 -34 -167 -56 -208 -23
-46 -34 -34 -34 37 0 51 -5 72 -20 91 -17 22 -20 42 -21 152 l-1 126 -14 -55
c-8 -30 -17 -95 -20 -145 -6 -83 -5 -91 15 -109 14 -13 21 -31 21 -58 0 -47
-16 -49 -57 -5 -30 31 -31 34 -36 157 -8 180 -29 222 -86 169 -32 -30 -40 -57
-50 -177 -9 -107 -5 -202 9 -202 4 0 13 21 19 47 16 62 39 105 53 97 11 -7 10
-32 -8 -430 -7 -132 -5 -145 17 -207 23 -64 23 -67 6 -102 -15 -31 -15 -39 -3
-63 24 -48 -5 -69 -50 -37 -21 14 -22 13 -28 -32 -13 -98 -8 -128 28 -172 24
-29 38 -59 46 -99 6 -31 15 -77 20 -101 4 -24 6 -50 3 -57 -8 -21 -131 -49
-268 -59 -99 -8 -141 -19 -229 -57 -56 -25 -73 -28 -92 -19 -20 9 -24 18 -23
53 0 63 20 112 45 116 26 4 33 50 35 227 1 153 6 170 44 170 l30 0 6 -78 c4
-43 9 -80 12 -83 3 -3 8 28 12 70 13 134 50 144 57 16 3 -44 8 -83 12 -87 15
-15 26 25 26 95 0 73 13 118 31 107 5 -4 9 -44 9 -90 0 -46 4 -86 9 -89 10 -7
17 20 27 108 9 82 29 100 106 94 l59 -4 -6 25 c-10 40 -19 44 -76 32 -30 -6
-97 -15 -151 -20 -53 -5 -110 -17 -127 -25 -36 -19 -63 -20 -79 -4 -18 18 -14
103 8 187 11 41 20 89 20 107 0 42 18 53 40 24 15 -20 18 -21 23 -5 4 9 7 30
7 46 0 22 5 29 20 29 21 0 40 -27 40 -59 0 -23 19 -35 68 -45 52 -9 72 7 72
57 0 53 -11 71 -38 63 -28 -9 -48 25 -32 54 18 33 159 66 161 38 0 -7 0 -56
-1 -108 0 -52 4 -102 9 -110 18 -26 23 13 19 131 -2 83 -7 112 -18 119 -8 5
-45 10 -82 10 -56 0 -69 3 -78 19 -5 11 -8 26 -6 33 2 7 7 26 10 41 4 17 16
31 30 37 13 5 36 25 52 45 l27 36 -7 127 c-8 163 -12 179 -47 198 l-29 14 6
93 6 92 -20 -24 c-10 -13 -25 -22 -33 -19 -18 6 -43 130 -40 206 2 56 -1 66
-22 86 -18 16 -26 38 -31 79 -8 58 -20 73 -31 37 -6 -19 -33 -28 -36 -12 -1 4
-4 61 -8 127 -5 98 -9 120 -22 123 -20 4 -39 -38 -39 -84 0 -25 -8 -42 -26
-59 -18 -17 -28 -39 -34 -77 -8 -54 -17 -85 -52 -173 -11 -27 -26 -74 -33
-104 -13 -54 -32 -78 -49 -61 -16 16 -18 96 -2 170 18 87 19 100 7 100 -13 0
-31 -83 -40 -192 -9 -104 -23 -137 -48 -116 -13 10 -14 34 -8 145 5 86 4 133
-3 133 -13 0 -22 -35 -22 -92 0 -56 -15 -101 -33 -96 -25 9 -38 81 -35 185 3
98 4 104 31 129 30 27 34 68 7 70 -8 1 -20 2 -27 2 -19 3 -36 81 -28 136 3 27
15 67 26 88 l20 40 -26 34 c-25 32 -25 35 -12 76 17 49 34 59 45 27 8 -21 10
-20 38 22 35 52 64 63 64 25 0 -14 4 -26 9 -26 16 0 29 25 50 96 19 64 83 175
138 240 40 48 146 84 177 61 21 -15 24 -10 -43 -69 -12 -10 -22 -36 -26 -65
-3 -26 -19 -109 -36 -185 -29 -134 -38 -238 -20 -238 14 0 20 25 37 144 16
120 54 268 84 326 10 20 35 51 55 69 34 29 41 31 83 25 26 -3 51 -10 57 -15
17 -16 30 -9 42 21 17 46 48 40 65 -12z m-612 -10 c0 -45 -74 -128 -113 -128
-23 0 -97 89 -97 116 0 31 19 31 66 -1 46 -31 57 -31 73 -1 14 24 50 47 64 39
4 -2 7 -14 7 -25z m904 -25 c11 -36 26 -150 26 -195 0 -36 -4 -48 -15 -48 -26
0 -39 43 -43 153 -4 92 -2 107 11 107 9 0 18 -8 21 -17z m2565 -16 c14 -18 4
-27 -31 -27 -26 0 -37 17 -21 33 11 12 40 8 52 -6z m-1396 -3 c12 -12 -6 -34
-29 -34 -26 0 -30 10 -12 28 13 13 31 16 41 6z m255 -21 c-2 -11 -14 -19 -31
-21 -29 -4 -35 6 -15 26 19 19 50 15 46 -5z m-3103 -3 c3 -5 15 -10 26 -10 23
0 99 -66 99 -86 0 -17 -18 -17 -45 -1 -55 33 -124 90 -119 98 7 12 31 11 39
-1z m-83 -48 c46 -27 114 -66 151 -86 48 -27 67 -43 65 -54 -6 -27 -52 -16
-155 34 -131 65 -226 154 -163 154 11 0 57 -22 102 -48z m2855 22 c7 -18 -12
-34 -39 -34 -35 0 -10 48 25 50 4 0 10 -7 14 -16z m1335 -2 c25 -25 -9 -37
-105 -37 -75 0 -92 3 -92 15 0 34 166 53 197 22z m-2242 -43 c12 -22 13 -76 1
-83 -21 -14 -60 66 -47 99 7 18 33 9 46 -16z m-1533 -65 c28 -48 28 -54 3 -54
-29 0 -25 -15 11 -41 35 -25 27 -44 -15 -33 -30 7 -76 57 -76 83 0 10 -11 23
-25 29 -34 16 -31 40 7 56 43 18 68 7 95 -40z m2563 27 c0 -14 -61 -62 -74
-58 -18 6 -18 33 -1 51 17 17 75 22 75 7z m-944 -93 c19 -38 33 -208 17 -208
-21 0 -33 29 -43 101 -5 41 -12 82 -16 92 -7 20 1 47 15 47 6 0 18 -14 27 -32z
m-141 -33 c15 -30 29 -55 31 -55 2 0 13 6 24 13 32 19 42 -6 35 -90 -6 -64 -4
-76 19 -119 20 -37 26 -63 26 -111 0 -37 -5 -65 -12 -69 -6 -4 -13 -3 -15 3
-2 6 -10 19 -18 29 -13 17 -16 17 -25 4 -13 -18 -8 -60 13 -115 8 -21 13 -45
10 -52 -6 -16 -63 -17 -98 -1 -35 16 -32 61 4 66 24 4 24 5 18 94 -8 125 -45
178 -71 101 -15 -44 -25 -51 -42 -29 -9 13 -14 45 -14 87 l0 67 56 4 c60 3 74
-4 74 -39 0 -27 15 -31 24 -6 11 29 -14 79 -59 121 -42 38 -45 45 -45 90 0 82
27 85 65 7z m930 25 c9 -14 -10 -36 -36 -43 -28 -7 -38 22 -14 39 22 17 41 18
50 4z m-2179 -11 c7 -12 -13 -29 -36 -29 -23 0 -43 17 -36 29 4 6 20 11 36 11
16 0 32 -5 36 -11z m1596 -56 c5 -45 -3 -93 -17 -96 -6 -1 -11 27 -13 66 -2
53 0 67 11 67 10 0 16 -14 19 -37z m423 28 c15 -25 -117 -110 -149 -98 -30 12
-16 32 47 69 62 38 91 46 102 29z m784 -5 c18 -22 -12 -34 -131 -50 -111 -16
-138 -23 -138 -37 0 -12 -18 -13 246 18 312 36 583 38 694 5 41 -13 131 -34
200 -48 69 -13 159 -34 200 -45 41 -11 147 -31 235 -44 88 -13 219 -35 290
-49 72 -14 149 -26 171 -26 23 0 86 -11 140 -26 54 -14 132 -29 174 -34 41 -6
149 -28 240 -49 91 -22 244 -57 340 -80 96 -22 265 -61 375 -86 110 -26 223
-55 251 -66 28 -11 79 -24 114 -30 67 -11 100 -24 100 -40 0 -5 -13 -37 -28
-72 -35 -77 -106 -155 -225 -248 -51 -40 -105 -85 -122 -99 -29 -26 -154 -92
-405 -214 -128 -63 -325 -132 -472 -166 -91 -21 -104 -21 -215 -10 -301 30
-333 31 -333 5 0 -17 46 -25 146 -25 68 0 84 -3 84 -15 0 -24 -46 -30 -230
-30 -180 0 -267 12 -291 41 -19 23 1 34 85 47 42 7 78 17 79 22 1 6 -21 13
-49 16 -59 7 -74 14 -74 34 0 17 23 25 76 25 49 0 57 11 19 28 -48 22 -24 60
45 69 79 11 51 29 -55 35 -53 4 -54 22 -6 78 l39 45 101 0 c82 0 103 -3 118
-17 22 -23 13 -31 -45 -39 -33 -5 -17 -7 58 -6 58 1 121 -2 140 -7 33 -7 34
-7 16 8 -11 9 -54 29 -95 45 -126 49 -186 78 -219 106 -53 44 -42 60 56 85 31
8 42 16 42 30 0 23 42 88 70 107 11 8 20 25 20 38 0 13 8 29 18 35 32 20 -236
6 -283 -15 l-40 -18 47 -8 c48 -7 108 -44 108 -65 0 -6 -30 -19 -68 -28 -37
-10 -74 -22 -82 -27 -15 -10 -14 -10 112 6 27 3 49 2 52 -4 20 -32 -161 -79
-257 -67 -70 9 -97 27 -80 55 12 18 8 20 -75 25 -154 11 -682 189 -682 230 0
8 16 27 35 42 38 29 43 49 20 80 -8 10 -15 22 -15 25 0 13 139 149 152 149 7
0 78 -14 158 -31 80 -16 181 -37 225 -46 99 -19 244 -55 350 -87 86 -26 98
-39 71 -81 -20 -31 -21 -65 -1 -65 8 0 21 13 30 30 29 56 127 55 202 -4 39
-30 54 -36 95 -36 61 0 130 -23 299 -101 165 -75 521 -216 652 -258 93 -30
185 -41 172 -22 -3 5 -30 15 -60 21 -78 16 -300 92 -362 124 -29 14 -81 37
-115 50 -113 43 -232 92 -275 114 -23 12 -48 22 -54 22 -23 0 -97 41 -103 56
-7 17 24 79 51 100 17 14 17 15 -7 10 -125 -25 -213 -37 -246 -34 -33 3 -39 6
-37 24 2 20 -3 22 -85 27 -68 4 -130 18 -286 66 -109 33 -258 72 -330 86 -201
40 -243 54 -271 87 -26 31 -32 62 -15 73 20 12 10 45 -16 55 -28 11 -107 13
-142 4 -36 -10 -20 -28 29 -34 53 -6 67 -34 22 -44 -131 -28 -297 -32 -480
-11 -70 8 -180 19 -243 24 -102 8 -117 12 -133 33 -44 56 -47 58 -89 58 -24 0
-106 -7 -184 -16 l-141 -17 -56 27 c-41 19 -72 26 -116 26 -69 0 -84 13 -42
35 21 10 59 15 121 15 88 0 101 5 79 27 -7 7 -9 18 -6 27 5 12 24 14 114 9 74
-3 133 0 188 10 108 20 229 22 244 3z m-1307 -70 c10 -26 21 -71 24 -100 6
-47 3 -58 -20 -92 -17 -25 -26 -52 -26 -76 0 -73 -33 -38 -44 47 -3 28 -9 63
-12 78 -6 26 -4 28 17 25 30 -4 36 25 19 99 -19 87 12 101 42 19z m282 5 c10
-16 -5 -41 -25 -41 -19 0 -27 29 -12 43 9 10 31 9 37 -2z m-1836 -47 c4 -28
-19 -51 -66 -64 -55 -16 -268 -25 -276 -12 -12 19 37 41 117 52 42 6 100 19
129 30 66 23 92 22 96 -6z m2187 -53 c9 -16 -27 -30 -124 -48 -50 -9 -87 -21
-83 -25 4 -4 50 -12 102 -18 152 -16 178 -21 155 -31 -11 -4 -39 -8 -63 -8
-23 -1 -61 -10 -83 -22 -24 -12 -69 -22 -107 -25 -85 -6 -116 8 -120 55 -7 73
2 82 113 115 56 16 201 21 210 7z m-531 -37 c22 -9 21 -61 -2 -73 -34 -18 -60
23 -36 58 17 24 16 23 38 15z m1016 -3 c0 -14 -66 -23 -115 -15 -25 3 -42 10
-39 15 7 12 154 12 154 0z m-2897 -55 c1 -5 -6 -14 -15 -20 -13 -8 -21 -7 -30
2 -10 10 -10 15 2 22 17 11 40 9 43 -4z m201 8 c22 -8 20 -41 -3 -54 -29 -15
-84 -12 -107 5 -19 15 -19 15 5 35 23 20 73 26 105 14z m3016 -43 c91 -11 206
-21 255 -21 113 0 138 -12 145 -65 4 -34 9 -40 37 -47 20 -5 34 -16 38 -31 3
-12 11 -39 17 -61 16 -50 3 -60 -100 -76 -75 -11 -79 -11 -128 14 -83 41 -159
57 -337 67 -172 9 -239 19 -286 43 -14 7 -68 16 -120 18 -76 5 -97 9 -114 26
-17 17 -18 23 -7 36 7 9 27 16 45 16 40 0 47 7 32 31 -16 25 4 39 55 39 27 0
40 -6 48 -19 13 -25 177 -65 438 -107 17 -3 32 -1 32 4 0 12 -28 19 -175 43
-192 32 -310 68 -288 90 32 32 144 32 413 0z m-3110 -41 c25 -16 0 -41 -60
-59 -30 -10 -69 -25 -87 -34 -25 -14 -47 -16 -100 -11 -79 7 -123 -6 -123 -35
0 -20 8 -24 68 -36 34 -7 43 -30 15 -39 -27 -8 -256 -24 -448 -32 -156 -6
-172 -5 -189 11 -15 15 -24 16 -59 9 -54 -12 -77 -7 -77 17 0 12 9 21 28 25
15 3 33 7 40 10 23 7 72 -8 72 -22 0 -8 4 -14 9 -14 23 0 389 94 412 106 21
10 354 90 449 107 14 2 27 5 30 5 3 1 12 -3 20 -8z m1700 -36 c0 -31 -23 -28
-28 4 -2 15 2 22 12 22 11 0 16 -9 16 -26z m126 -1 c3 -16 13 -51 20 -79 17
-60 6 -108 -24 -102 -31 6 -43 208 -12 208 5 0 12 -12 16 -27z m-1749 -18 c25
-18 51 -111 35 -127 -15 -15 -41 -2 -52 27 -6 15 -17 25 -29 25 -10 0 -29 9
-42 20 l-24 20 28 25 c32 29 54 31 84 10z m2122 -4 c25 -16 2 -28 -68 -35 -86
-9 -108 -27 -61 -53 56 -32 64 -39 56 -58 -5 -15 -14 -17 -57 -11 -41 6 -55 4
-70 -10 -24 -22 -24 -30 2 -62 13 -17 18 -34 14 -49 -7 -29 17 -54 87 -89 29
-15 79 -45 112 -66 32 -22 74 -45 93 -50 45 -12 105 -73 139 -140 28 -55 276
-309 550 -562 232 -215 294 -280 325 -336 36 -66 148 -218 267 -358 48 -57
108 -129 133 -160 26 -32 70 -82 99 -112 50 -54 51 -54 29 -15 -29 51 -70 105
-132 174 -27 30 -76 93 -108 140 -33 48 -97 130 -144 185 -47 54 -85 107 -85
117 0 28 32 24 61 -7 61 -67 494 -372 507 -359 10 9 -71 75 -233 192 -177 128
-401 302 -482 376 -32 29 -80 70 -108 92 -78 61 -341 323 -398 395 -28 36 -67
81 -87 101 -20 20 -41 54 -48 77 -7 24 -22 47 -35 53 -12 7 -64 51 -116 98
-198 182 -231 209 -274 220 -60 15 -109 48 -105 69 5 24 57 18 132 -15 66 -30
212 -141 236 -179 20 -33 168 -110 183 -95 6 6 18 11 26 11 14 0 111 -53 311
-169 52 -30 139 -76 192 -102 53 -27 121 -70 151 -96 54 -47 131 -104 339
-248 58 -41 163 -120 233 -175 159 -127 205 -156 205 -130 0 22 -302 260 -506
398 -204 138 -254 182 -207 182 26 0 140 -56 183 -90 21 -17 40 -30 43 -30 3
0 46 -24 95 -54 49 -30 116 -66 148 -79 33 -13 83 -40 111 -60 29 -19 117 -68
195 -108 79 -39 155 -80 170 -90 29 -21 63 -25 74 -8 11 18 -12 31 -181 109
-192 87 -235 113 -235 140 0 26 23 26 138 1 48 -10 110 -22 137 -26 28 -3 73
-13 101 -21 44 -12 492 -44 635 -44 44 0 47 2 52 30 13 61 100 46 205 -37 31
-24 89 -65 127 -91 82 -54 295 -232 347 -290 75 -83 107 -177 134 -391 27
-219 16 -429 -27 -514 -27 -51 -57 -64 -111 -47 -150 44 -595 325 -762 480
-44 41 -96 86 -114 99 -18 13 -44 41 -58 62 -15 24 -34 41 -52 45 -47 10 -82
26 -143 65 -77 50 -119 72 -119 61 0 -14 158 -143 286 -235 66 -47 156 -114
198 -149 228 -185 455 -330 691 -438 101 -47 125 -65 125 -92 0 -10 -21 -60
-46 -110 -49 -97 -164 -248 -255 -334 -67 -62 -202 -154 -227 -154 -24 0 -46
25 -122 139 -94 141 -282 371 -495 606 -65 72 -137 155 -161 185 -42 52 -166
160 -185 160 -19 0 -8 -17 42 -65 128 -125 481 -519 521 -581 15 -24 53 -74
85 -112 118 -141 232 -315 233 -354 0 -44 -292 -201 -425 -229 -22 -4 -78 -22
-125 -38 -132 -47 -293 -56 -525 -32 -145 16 -191 24 -235 45 -30 14 -114 38
-185 55 -129 29 -248 67 -315 101 -70 36 -223 230 -348 442 -31 53 -77 131
-102 173 -25 42 -78 131 -118 198 -39 67 -82 142 -93 166 -20 42 -64 113 -164
267 -25 40 -57 98 -70 130 -16 40 -33 64 -52 75 -20 11 -38 39 -63 95 -44 99
-115 222 -181 311 -28 37 -61 91 -74 119 -18 42 -101 186 -202 352 -7 12 -21
22 -30 22 -25 0 -53 30 -53 56 0 23 54 94 71 94 5 0 25 -33 45 -72 47 -93 230
-360 286 -417 24 -23 56 -48 73 -55 16 -7 85 -74 153 -149 109 -121 142 -151
142 -131 0 17 -30 57 -89 119 -69 73 -189 224 -209 262 -7 12 -12 38 -12 58 0
23 -14 62 -41 111 l-42 76 22 28 c11 16 21 36 21 44 0 8 5 18 10 21 27 17 80
-72 80 -134 0 -35 8 -50 68 -118 169 -193 276 -350 375 -548 36 -71 68 -140
71 -151 4 -12 16 -30 28 -40 l21 -19 -6 34 c-4 18 -34 90 -68 160 -33 69 -86
178 -116 241 -31 63 -71 131 -89 150 -44 48 -85 111 -78 121 11 18 31 8 109
-55 43 -36 90 -68 104 -71 38 -10 185 -120 230 -172 21 -26 70 -100 107 -164
37 -65 85 -139 106 -165 21 -25 54 -76 73 -113 19 -36 62 -97 95 -136 33 -38
60 -73 60 -77 0 -11 30 -10 30 1 0 5 -20 33 -44 62 -65 81 -262 379 -285 433
-26 60 -72 127 -132 193 -26 29 -64 83 -85 120 -20 37 -55 94 -76 125 -21 31
-38 61 -38 66 0 5 9 16 21 23 19 13 17 17 -61 88 -45 41 -100 96 -121 124 -64
80 -47 120 34 82 l32 -16 -35 28 c-19 15 -57 46 -85 68 -58 47 -108 117 -132
186 -10 27 -23 49 -30 49 -7 0 -13 -4 -13 -8 0 -5 -6 -17 -14 -28 -14 -18 -17
-17 -68 32 -56 54 -212 164 -233 164 -7 0 -26 -5 -44 -11 -45 -16 -58 0 -66
77 -9 75 8 282 27 339 13 40 13 40 73 46 97 9 149 9 164 0z m-460 -51 c16 -8
18 -23 16 -137 -2 -104 -9 -153 -34 -257 -31 -128 -45 -161 -62 -150 -18 11
-10 197 13 280 15 55 22 109 22 177 1 101 5 109 45 87z m-1714 -60 c0 -18 -43
-26 -59 -10 -8 8 -7 13 4 20 21 14 55 8 55 -10z m2535 -11 c205 -12 346 -33
408 -58 26 -11 83 -22 127 -25 44 -3 97 -11 118 -17 34 -9 38 -13 33 -34 -6
-23 -3 -24 72 -30 174 -15 250 -27 307 -51 33 -14 76 -30 95 -36 19 -6 60 -23
90 -38 30 -15 77 -30 103 -33 26 -4 68 -18 91 -32 27 -16 84 -33 147 -45 200
-38 212 -64 32 -68 -129 -3 -172 6 -180 39 -5 17 -11 20 -39 14 -23 -4 -41 -1
-59 11 -23 15 -27 15 -50 0 -32 -21 -71 -20 -103 3 -15 10 -56 23 -92 29 -49
9 -70 18 -85 36 -12 15 -38 29 -65 35 -25 5 -49 18 -55 27 -32 54 -30 54 -257
54 -248 0 -323 10 -396 51 -28 16 -76 34 -105 40 -68 14 -102 35 -87 54 15 18
-15 23 -170 28 -126 5 -210 22 -210 42 0 20 19 24 95 19 39 -2 144 -9 235 -15z
m-942 -55 c2 -42 -2 -65 -13 -79 -15 -20 -15 -20 -31 0 -29 37 -4 153 30 142
6 -2 12 -30 14 -63z m-2915 29 c12 -11 -14 -33 -39 -33 -28 0 -31 15 -6 29 20
12 36 14 45 4z m172 -19 c0 -12 -8 -20 -22 -22 -17 -3 -23 2 -23 16 0 20 16
33 35 28 6 -2 10 -11 10 -22z m1072 -11 c5 -14 -90 -45 -112 -36 -18 6 -19 17
-2 31 28 23 107 26 114 5z m2512 -23 c24 -4 48 -15 53 -24 11 -20 35 -43 55
-55 23 -12 9 -41 -19 -41 -13 0 -35 8 -48 17 -14 10 -50 21 -80 24 -50 6 -173
50 -194 69 -4 5 -5 14 -1 20 8 13 142 7 234 -10z m-913 -54 c-3 -14 -13 -26
-21 -26 -18 0 -34 30 -27 50 15 43 59 21 48 -24z m-2847 35 c11 -7 10 -11 -7
-20 -29 -15 -62 -14 -62 3 0 13 16 22 45 25 6 0 16 -3 24 -8z m-104 -31 c8
-13 -57 -29 -72 -17 -7 5 -10 13 -7 18 7 12 71 11 79 -1z m939 1 c13 -20 -66
-47 -99 -35 -20 8 -19 31 3 37 31 8 91 7 96 -2z m176 -10 c0 -22 -37 -35 -75
-25 -24 6 -32 23 -18 37 3 4 26 7 50 7 36 0 43 -3 43 -19z m419 -3 c5 -13 5
-27 1 -32 -16 -16 -107 -44 -120 -36 -20 12 -2 45 38 68 48 28 70 28 81 0z
m-831 -6 c2 -7 -23 -25 -65 -45 -58 -27 -78 -32 -135 -30 -84 2 -148 19 -148
39 0 20 42 34 108 35 31 0 75 4 97 9 57 12 138 8 143 -8z m3416 -18 c25 -9 19
-24 -9 -24 -24 0 -32 10 -18 23 8 8 8 8 27 1z m-3984 -29 c0 -9 -7 -18 -15
-21 -25 -10 -17 -21 31 -39 41 -16 55 -16 113 -6 90 16 169 17 184 2 9 -9 9
-14 -3 -21 -22 -13 -145 -40 -235 -50 -64 -8 -84 -14 -105 -35 l-25 -26 24
-18 c16 -12 22 -24 18 -35 -9 -24 -69 -20 -124 8 -27 14 -60 29 -75 35 -16 6
-28 18 -28 26 0 20 30 31 110 39 36 4 72 12 80 17 15 10 -23 8 -107 -7 -24 -5
-36 -1 -49 15 -14 15 -30 21 -61 21 -36 0 -43 3 -43 19 0 23 61 46 190 72 110
22 120 22 120 4z m149 -11 c9 -8 -13 -24 -34 -24 -29 0 -43 19 -24 31 12 7 46
3 58 -7z m567 5 c12 -20 -15 -33 -68 -34 -56 0 -76 19 -36 34 32 13 95 13 104
0z m374 -2 c0 -7 -5 -18 -12 -25 -9 -9 -7 -12 9 -12 57 0 24 -44 -89 -120 -65
-43 -86 -42 -74 4 4 18 24 36 60 57 54 30 108 77 59 51 -30 -17 -73 -15 -73 2
0 15 75 56 103 56 9 0 17 -6 17 -13z m160 -39 c0 -16 -30 -48 -46 -48 -21 0
-24 15 -8 38 16 23 54 30 54 10z m2771 -7 c18 -15 21 -22 13 -31 -16 -16 -134
17 -134 36 0 23 93 18 121 -5z m-2202 -80 c15 -93 14 -126 -4 -141 -12 -10
-16 -8 -25 14 -13 34 -25 180 -16 201 12 32 33 -2 45 -74z m2690 80 c19 -12 5
-31 -23 -31 -12 0 -31 -7 -42 -15 -14 -11 -36 -13 -89 -9 -110 9 -156 29 -128
57 10 10 266 8 282 -2z m-3109 -20 c0 -24 -38 -148 -56 -183 -17 -32 -29 -35
-42 -10 -20 37 49 212 83 212 8 0 15 -9 15 -19z m-1870 -46 c0 -15 -57 -35
-102 -35 -18 0 -28 5 -28 15 0 8 12 17 28 21 15 3 32 7 37 9 28 9 65 4 65 -10z
m199 -4 c16 -10 6 -31 -14 -31 -17 0 -28 17 -20 30 8 12 16 12 34 1z m4485 -1
c17 -6 26 -17 26 -31 0 -20 -4 -21 -41 -16 -51 7 -82 32 -59 47 19 12 42 12
74 0z m513 4 c22 -6 41 -40 29 -51 -11 -11 -156 19 -156 33 0 7 6 15 13 17 17
8 88 8 114 1z m-3507 -40 c0 -41 -57 -103 -81 -88 -17 10 -9 33 22 69 33 37
59 46 59 19z m-1091 -12 c44 -22 50 -39 17 -48 -31 -8 -83 12 -96 36 -18 34
23 40 79 12z m671 -7 c0 -8 -12 -22 -26 -32 -87 -61 -183 -135 -204 -158 -22
-23 -16 -22 58 16 46 23 105 62 132 85 50 45 70 54 70 30 0 -19 -182 -192
-265 -252 -73 -52 -125 -100 -125 -115 0 -17 16 -8 80 45 36 29 85 63 110 76
25 12 67 40 94 61 51 41 76 49 76 25 0 -24 -236 -281 -423 -462 -97 -93 -177
-174 -177 -180 0 -16 -61 -78 -168 -170 -139 -120 -157 -131 -234 -155 -70
-21 -179 -88 -258 -159 l-45 -41 50 34 c78 54 196 114 237 121 20 4 63 26 96
50 58 43 95 66 106 66 15 0 3 -51 -18 -81 -14 -19 -39 -59 -56 -90 -17 -30
-69 -104 -116 -165 -47 -60 -92 -122 -101 -139 -9 -16 -30 -46 -48 -66 -39
-43 -119 -161 -163 -239 -17 -30 -67 -98 -111 -150 -78 -92 -152 -210 -133
-210 6 0 42 45 81 100 39 55 98 132 130 172 32 40 91 123 131 183 41 61 101
146 134 191 109 144 188 263 248 371 32 58 83 134 112 167 29 34 73 88 97 121
24 33 128 144 230 246 101 103 196 203 209 223 28 40 50 53 61 35 9 -16 -1
-43 -75 -195 -59 -121 -132 -327 -156 -439 -15 -70 -19 -79 -155 -365 -67
-140 -141 -303 -164 -361 -23 -59 -58 -131 -77 -160 -32 -50 -66 -127 -109
-243 -10 -27 -33 -66 -52 -87 -24 -26 -41 -61 -57 -119 -15 -49 -45 -116 -74
-164 -61 -101 -87 -152 -96 -191 -10 -49 -98 -214 -139 -260 -54 -63 -82 -69
-300 -70 l-189 0 -19 25 c-10 14 -24 31 -29 37 -7 8 -37 13 -79 13 -53 0 -74
4 -92 19 l-24 19 21 29 c11 15 30 49 42 75 11 26 42 80 68 120 77 118 173 276
198 327 14 26 32 53 41 61 18 15 49 70 42 76 -8 8 -117 -148 -189 -269 -39
-67 -93 -153 -118 -192 -26 -38 -67 -106 -90 -150 -24 -44 -49 -84 -54 -88
-17 -13 -146 0 -206 21 -31 11 -79 32 -109 46 -29 15 -80 32 -112 38 -95 16
-160 75 -145 131 8 31 121 175 319 407 40 47 87 103 105 125 31 38 41 60 24
53 -10 -4 -141 -152 -197 -223 -22 -27 -76 -88 -121 -135 -45 -47 -97 -110
-117 -140 -59 -93 -97 -114 -140 -80 -14 11 -29 29 -32 40 -5 15 -15 20 -44
20 -38 0 -71 24 -84 63 -4 10 -23 24 -42 33 -52 21 -165 171 -165 219 0 9 -7
27 -16 40 -15 23 -14 24 28 51 24 15 72 55 108 88 96 90 156 143 244 214 69
57 76 65 60 76 -17 13 -17 37 2 81 12 29 -72 -47 -135 -122 -28 -35 -65 -73
-82 -85 -17 -13 -40 -39 -51 -59 -20 -36 -106 -118 -160 -153 -41 -27 -72 -15
-92 34 -9 22 -16 57 -16 78 0 21 -11 54 -25 77 -29 47 -32 91 -8 140 17 36 17
37 -5 53 -29 23 -50 131 -34 176 9 24 8 40 -3 71 -18 52 -19 89 0 124 8 16 14
42 13 57 -3 102 71 263 179 389 62 73 75 85 183 165 78 58 318 176 377 185 26
4 77 20 113 35 65 28 66 29 139 14 318 -60 712 -25 1065 96 50 16 98 30 108
30 42 0 12 -32 -69 -74 -49 -25 -101 -57 -118 -70 l-30 -25 60 24 c33 14 76
25 96 25 21 0 42 7 50 16 8 9 30 27 50 39 20 13 62 47 95 75 79 70 159 107
261 119 139 17 284 69 156 55 -45 -5 -63 -3 -63 5 0 6 8 14 18 17 9 4 64 28
122 55 58 27 110 49 116 49 6 0 23 14 40 31 55 58 286 198 327 199 9 0 17 -7
17 -15z m4109 -30 c31 -16 40 -38 20 -50 -16 -10 -179 45 -179 60 0 8 8 15 18
17 28 6 107 -9 141 -27z m-5299 15 c0 -13 -91 -38 -166 -46 -43 -5 -64 -3 -64
4 0 16 13 22 83 37 74 16 147 19 147 5z m945 -10 c0 -10 -13 -16 -42 -18 -33
-2 -43 0 -43 12 0 16 23 25 60 23 15 -1 25 -8 25 -17z m535 -2 c0 -6 -24 -35
-53 -65 -30 -29 -59 -53 -65 -53 -27 0 -9 40 38 84 47 44 80 58 80 34z m2173
-20 c13 -13 32 -44 42 -71 21 -60 88 -160 120 -181 29 -19 41 -70 26 -109 -14
-37 -25 -30 -93 58 -140 181 -183 261 -165 310 9 22 42 19 70 -7z m-2025 -10
c-2 -15 -11 -24 -25 -26 -27 -4 -30 10 -7 32 22 23 36 20 32 -6z m2232 -23
c63 -40 76 -81 21 -68 l-26 6 25 -27 c14 -15 62 -50 107 -77 90 -55 136 -101
165 -167 38 -86 -17 -72 -173 44 -48 35 -91 64 -97 64 -20 0 -73 52 -93 92
-19 37 -19 42 -5 63 9 14 16 40 16 60 0 42 8 43 60 10z m-3053 1 c26 -25 -104
-76 -212 -83 -107 -8 -131 46 -27 61 26 4 74 13 107 21 55 13 120 13 132 1z
m1109 -122 c-9 -134 4 -212 40 -251 13 -14 24 -29 24 -32 0 -4 -14 -26 -32
-50 -32 -44 -92 -151 -183 -327 -29 -56 -64 -119 -79 -140 -14 -21 -26 -43
-26 -47 0 -5 -24 -43 -54 -85 -29 -43 -68 -104 -87 -137 -18 -33 -50 -86 -71
-117 -21 -32 -56 -93 -78 -135 -22 -43 -56 -103 -77 -134 -167 -246 -235 -338
-318 -434 -108 -124 -129 -159 -139 -229 -5 -38 -23 -74 -83 -165 -96 -145
-146 -198 -253 -272 -47 -32 -101 -72 -120 -88 -37 -31 -354 -181 -383 -181
-26 0 -21 36 12 89 15 26 32 58 36 72 4 13 31 65 61 115 30 50 54 97 54 105 0
8 25 64 55 124 30 61 55 117 55 125 0 8 13 40 30 71 16 31 50 108 76 170 25
63 74 168 109 234 34 66 68 138 75 160 7 22 39 96 71 164 33 68 59 129 59 136
0 6 35 81 78 166 51 102 86 184 101 244 34 132 112 335 200 523 77 162 95 188
124 176 31 -11 26 -39 -22 -143 -74 -160 -79 -194 -10 -73 31 55 53 72 71 54
13 -13 -18 -84 -73 -168 -58 -90 -50 -99 26 -32 30 27 50 38 53 30 8 -25 22
-10 43 49 22 61 119 224 158 267 45 49 56 7 17 -68 -13 -25 -40 -75 -60 -112
-48 -88 -88 -206 -77 -226 12 -22 33 13 76 130 64 174 133 264 172 225 12 -12
8 -26 -26 -92 -23 -43 -41 -83 -41 -89 1 -19 50 48 61 84 14 43 79 150 90 150
14 0 11 -20 -16 -110 l-25 -84 20 -21 c11 -12 20 -27 20 -33 0 -18 17 -14 25
6 4 9 15 49 25 89 11 39 26 85 34 102 22 41 20 51 -6 48 -35 -3 -34 31 2 144
25 77 36 99 49 97 18 -4 30 -55 30 -139 1 -65 19 -170 31 -183 15 -16 20 12
28 180 5 109 12 167 21 178 27 32 34 5 27 -110z m3520 95 c14 -13 36 -19 75
-20 63 -1 131 -19 137 -37 5 -16 -8 -19 -111 -27 -48 -4 -85 -11 -82 -15 9
-15 129 -22 173 -11 34 10 46 19 60 49 l17 37 195 -1 c150 -1 208 -5 252 -17
31 -10 65 -17 76 -17 11 0 25 -7 32 -15 10 -12 7 -15 -15 -21 -27 -7 -150 0
-247 12 -31 4 -48 3 -48 -4 0 -6 17 -12 38 -14 24 -2 37 -8 37 -18 0 -19 -36
-28 -120 -29 -128 -2 -129 -15 -2 -26 64 -5 118 -14 119 -20 1 -5 -16 -19 -38
-30 -35 -18 -58 -20 -234 -19 -249 1 -407 23 -501 70 -26 13 -80 30 -120 39
-86 18 -163 53 -167 78 -4 22 25 22 92 2 62 -19 106 -19 132 0 12 8 43 19 70
25 27 6 58 19 69 29 38 35 72 35 111 0z m-2416 -14 c0 -8 -4 -15 -10 -15 -5 0
-10 7 -10 15 0 8 5 15 10 15 6 0 10 -7 10 -15z m933 -50 c7 -16 -8 -29 -23
-20 -15 9 -12 35 4 35 8 0 16 -7 19 -15z m-3449 -15 c5 -5 6 -16 3 -24 -12
-30 -237 -16 -237 14 0 26 208 35 234 10z m894 -12 c-4 -29 -38 -38 -38 -10 0
22 8 32 27 32 9 0 13 -8 11 -22z m2649 -14 c3 -8 1 -20 -4 -25 -14 -14 -43 0
-43 22 0 24 38 26 47 3z m1066 -55 c258 -114 410 -176 442 -183 28 -6 27 -5
-10 16 -22 13 -41 32 -43 42 -4 18 4 18 178 11 199 -8 233 -13 238 -38 3 -14
-5 -17 -44 -17 l-47 0 24 -26 c20 -21 32 -25 69 -23 25 1 51 1 58 0 19 -2 14
-25 -8 -39 -15 -9 -19 -19 -14 -36 5 -23 2 -25 -40 -31 -25 -4 -56 -5 -69 -2
-183 41 -536 163 -628 217 -36 22 -103 53 -149 69 -99 37 -170 77 -170 96 0
28 51 15 213 -56z m-1753 17 c0 -59 -18 -108 -39 -104 -12 3 -15 13 -14 43 6
96 53 150 53 61z m252 27 c19 -21 54 -130 45 -139 -15 -15 -65 37 -77 80 -18
66 -1 97 32 59z m-95 -9 c8 -21 -23 -52 -38 -37 -14 14 -2 53 17 53 8 0 17 -7
21 -16z m-2087 -63 c0 -24 -27 -48 -40 -35 -6 6 -4 18 6 32 19 27 34 28 34 3z
m88 2 c-5 -25 -28 -28 -28 -4 0 12 6 21 16 21 9 0 14 -7 12 -17z m2109 -87
c37 -47 88 -115 113 -151 25 -36 62 -88 82 -115 20 -28 42 -66 48 -86 12 -35
6 -104 -9 -104 -18 0 -74 87 -97 153 -21 59 -131 205 -176 233 -42 27 -68 73
-68 124 0 54 33 38 107 -54z m-1460 49 c39 -28 58 -186 29 -243 -22 -41 -74
-88 -80 -71 -22 77 -26 105 -20 168 7 72 0 87 -26 56 -31 -37 -61 5 -41 58 17
44 95 62 138 32z m356 -56 c12 -45 4 -218 -12 -247 -29 -54 -63 -1 -42 68 6
20 11 71 11 113 0 41 3 83 6 92 10 24 27 13 37 -26z m894 -3 c-4 -9 -11 -16
-17 -16 -11 0 -14 33 -3 44 11 10 26 -11 20 -28z m-1136 -10 c6 -13 25 -29 42
-37 39 -17 62 -72 53 -124 -6 -28 -15 -39 -42 -52 -31 -15 -36 -15 -50 -1 -14
14 -14 18 1 48 21 41 13 62 -22 58 -27 -3 -28 -1 -31 44 -5 74 26 115 49 64z
m3819 4 c13 -9 12 -12 -4 -25 -26 -20 -96 -20 -96 -1 0 25 73 44 100 26z
m-2126 -35 c11 -8 28 -15 38 -15 9 0 48 -17 85 -37 74 -40 245 -201 258 -244
4 -13 22 -42 40 -64 57 -71 71 -115 36 -115 -10 0 -74 48 -142 106 -68 59
-153 127 -188 153 -35 25 -70 53 -78 61 -25 26 -93 140 -93 155 0 19 19 19 44
0z m-2714 -3 c0 -5 -6 -16 -13 -27 -18 -24 -41 -11 -27 16 10 19 40 27 40 11z
m1855 -72 c3 -5 -4 -26 -15 -47 -11 -21 -20 -47 -20 -59 0 -12 -6 -27 -14 -33
-36 -30 -51 94 -16 129 21 21 55 27 65 10z m-694 -140 c11 -38 10 -136 -1
-164 -12 -32 -35 -34 -51 -4 -11 21 -6 148 8 184 8 22 36 12 44 -16z m1088
-14 c19 -37 24 -79 37 -290 11 -178 12 -251 4 -266 -8 -14 -8 -26 0 -40 16
-29 9 -85 -10 -85 -22 0 -38 71 -21 97 8 13 9 23 2 32 -6 7 -22 122 -36 257
-14 134 -28 265 -32 292 -5 43 -4 47 15 47 14 0 27 -13 41 -44z m-1286 -77 c4
-46 11 -97 16 -114 4 -16 6 -36 4 -42 -7 -20 -31 -15 -44 9 -14 26 -24 175
-15 213 13 51 31 20 39 -66z m4808 11 c32 -30 40 -43 31 -52 -24 -24 -155 82
-137 112 9 14 56 -12 106 -60z m-4021 -52 c-16 -45 -36 -60 -46 -34 -14 37 27
109 49 87 8 -8 7 -23 -3 -53z m4124 -40 c5 -9 7 -20 3 -24 -10 -10 -59 25 -51
37 8 14 35 7 48 -13z m-4248 -23 c8 -32 1 -171 -9 -182 -17 -16 -27 25 -27
108 0 47 3 89 7 92 13 13 23 7 29 -18z m205 -16 c16 -31 17 -135 1 -151 -24
-23 -42 18 -42 92 0 37 3 70 7 73 11 12 22 8 34 -14z m87 -45 c-2 -15 -9 -29
-15 -32 -19 -6 -27 26 -14 55 15 33 34 18 29 -23z m-1013 6 c0 -29 -32 -41
-41 -16 -9 24 4 48 23 44 12 -2 18 -12 18 -28z m63 -77 c-3 -42 -21 -51 -26
-15 -4 29 4 52 18 52 7 0 10 -15 8 -37z m1142 -27 c0 -33 -20 -62 -33 -49 -17
16 2 83 23 83 6 0 10 -15 10 -34z m-1370 14 c0 -5 -4 -10 -10 -10 -5 0 -10 5
-10 10 0 6 5 10 10 10 6 0 10 -4 10 -10z m146 -59 c-3 -9 -7 -56 -11 -104 -7
-85 -6 -90 20 -127 22 -32 25 -44 19 -76 -9 -47 -53 -94 -89 -94 -34 0 -41 21
-26 84 7 28 16 111 21 184 7 97 13 141 26 160 16 24 17 25 30 7 8 -11 12 -26
10 -34z m804 -72 c0 -20 -24 -26 -35 -9 -8 13 14 42 26 34 5 -3 9 -14 9 -25z
m-730 -18 c0 -22 -15 -35 -30 -26 -7 4 -7 13 0 26 14 25 30 25 30 0z m1170
-12 c0 -28 -19 -61 -31 -54 -12 8 -12 41 2 66 12 23 29 16 29 -12z m-372 -66
c3 -64 -12 -91 -44 -79 -13 5 -16 17 -12 61 8 100 51 114 56 18z m103 16 c14
-14 18 -26 13 -37 -4 -9 -9 -38 -12 -64 -4 -54 -17 -60 -51 -24 -31 33 -40
106 -16 129 22 23 41 21 66 -4z m117 -65 c-4 -24 -24 -29 -32 -8 -8 20 13 49
27 35 5 -5 7 -17 5 -27z m-23 -54 c8 -12 -21 -60 -35 -60 -11 0 -13 30 -4 54
7 18 30 21 39 6z m-379 -64 c9 -37 1 -61 -21 -61 -22 0 -42 43 -32 69 10 25
46 20 53 -8z m175 -3 c3 -10 3 -78 1 -151 -3 -96 -7 -132 -15 -129 -12 4 -40
274 -30 290 8 14 41 7 44 -10z m357 -50 c-2 -27 -8 -39 -20 -41 -21 -4 -24 27
-8 59 17 31 31 22 28 -18z m-271 -120 c-6 -145 -20 -217 -40 -210 -9 3 -12 45
-11 148 1 170 6 199 36 199 21 0 21 -2 15 -137z m198 40 c-8 -76 -20 -113 -35
-113 -19 0 -23 31 -12 79 15 67 30 101 43 101 8 0 9 -19 4 -67z m137 55 c7
-19 -2 -38 -18 -38 -8 0 -14 8 -14 18 0 30 23 44 32 20z m-1292 -105 c0 -129
-24 -154 -35 -38 -5 54 -3 80 5 90 23 28 30 15 30 -52z m1024 -119 c-1 -100
-11 -166 -28 -189 -13 -18 -14 -18 -24 2 -9 15 -8 46 3 119 21 138 25 156 38
151 8 -3 12 -31 11 -83z m-1130 31 c8 -43 0 -61 -20 -44 -8 6 -14 26 -14 44 0
57 24 58 34 0z m791 -65 c0 -34 -4 -45 -17 -48 -21 -4 -33 35 -24 74 5 17 12
24 24 22 13 -3 17 -14 17 -48z m408 -46 c8 -46 -2 -94 -18 -94 -25 0 -35 83
-14 121 14 26 25 17 32 -27z m201 27 c9 -14 -4 -41 -20 -41 -8 0 -14 10 -14
25 0 25 23 35 34 16z m-1396 -96 c4 -62 -3 -82 -23 -65 -15 13 -22 100 -8 114
16 15 28 -4 31 -49z m76 -71 c7 -19 -3 -64 -14 -64 -13 0 -22 38 -15 60 8 24
21 26 29 4z m647 -26 c5 -66 -4 -472 -12 -500 -10 -41 -25 -52 -79 -63 -43 -8
-115 -35 -240 -90 -52 -23 -107 -45 -122 -48 -36 -9 -58 14 -58 61 -1 20 -7
51 -15 67 -13 27 -14 18 -9 -90 7 -136 -2 -178 -38 -173 -56 8 -155 455 -111
499 18 18 33 1 33 -37 0 -19 7 -51 15 -70 8 -20 20 -65 26 -101 19 -109 30
-58 18 86 -11 131 -11 133 11 156 20 21 22 30 16 79 -8 63 -1 96 19 96 21 0
35 -33 35 -84 0 -25 5 -48 10 -51 6 -4 10 20 10 65 0 74 11 110 34 110 19 0
26 -23 26 -90 0 -65 9 -120 20 -120 4 0 10 52 12 116 4 88 9 120 22 132 24 24
34 6 47 -83 6 -44 13 -84 17 -89 11 -18 23 38 16 81 -8 52 0 89 22 97 25 10
44 -13 44 -53 0 -20 3 -61 7 -91 5 -45 8 -50 14 -30 4 14 7 52 8 86 1 60 19
103 38 91 6 -4 13 -35 15 -71 6 -74 19 -104 28 -67 3 14 11 26 18 29 12 4 15
-1 28 -53 7 -29 8 -29 15 15 4 25 8 73 8 107 1 34 4 68 7 77 7 19 44 22 45 4z
m89 -34 c0 -8 -7 -14 -15 -14 -15 0 -21 21 -9 33 10 9 24 -2 24 -19z m73 8
c25 -28 31 -75 14 -108 -13 -25 -14 -49 -5 -154 10 -130 4 -245 -14 -256 -5
-4 -17 1 -26 10 -15 15 -17 47 -17 254 0 275 5 301 48 254z m235 -5 c5 -23
-24 -67 -43 -67 -22 0 -28 38 -10 66 18 28 48 29 53 1z m-1104 -23 c10 -27 7
-123 -6 -130 -18 -11 -38 26 -38 72 0 51 8 74 25 74 7 0 16 -7 19 -16z m1200
-20 c15 -39 2 -124 -19 -124 -18 0 -28 52 -20 100 7 41 28 53 39 24z m111 -49
c0 -23 -34 -33 -46 -14 -10 17 9 41 30 37 9 -2 16 -12 16 -23z m-332 -120 c10
-66 -6 -272 -22 -288 -5 -5 -17 -7 -27 -3 -15 6 -16 21 -11 149 5 141 19 211
41 204 6 -2 15 -30 19 -62z m121 -17 c3 -13 6 -86 6 -164 0 -167 -7 -186 -58
-160 -39 20 -44 38 -40 141 3 72 5 80 23 80 16 0 23 12 35 63 16 66 24 76 34
40z m-984 -3 c0 -8 -4 -15 -10 -15 -5 0 -10 7 -10 15 0 8 5 15 10 15 6 0 10
-7 10 -15z m662 -181 c8 -76 -3 -103 -28 -70 -14 20 -20 127 -7 140 17 17 29
-6 35 -70z m435 -66 c-3 -8 -6 -5 -6 6 -1 11 2 17 5 13 3 -3 4 -12 1 -19z
m-407 -107 c13 -24 13 -251 0 -271 -33 -53 -59 145 -34 268 5 27 20 28 34 3z
m91 6 c31 -24 39 -56 39 -160 0 -149 11 -260 24 -247 23 23 28 6 24 -86 -4
-86 -6 -99 -27 -116 -23 -18 -54 -17 -75 3 -6 5 -9 102 -7 232 2 205 1 228
-19 284 -17 48 -19 67 -10 83 12 23 28 25 51 7z m-270 -21 c8 -17 7 -47 -5
-116 -17 -100 -19 -141 -10 -177 11 -41 24 -24 24 30 0 65 19 223 31 254 5 13
15 23 23 23 38 0 62 -94 31 -120 -18 -15 -19 -47 -5 -86 16 -40 35 -273 26
-317 -12 -62 -34 -77 -118 -77 -40 -1 -100 -7 -133 -15 -33 -8 -87 -15 -120
-15 -59 0 -61 -1 -72 -31 -10 -27 -15 -30 -27 -20 -8 7 -20 38 -26 69 -6 31
-20 83 -31 114 -12 31 -18 62 -14 68 4 6 21 10 38 8 l32 -3 0 125 c0 69 4 131
8 138 16 25 36 12 47 -30 26 -107 33 -129 42 -134 18 -11 18 4 -4 99 -18 78
-20 101 -10 121 14 32 40 34 51 4 4 -13 14 -65 21 -116 18 -132 34 -129 27 4
-3 60 -8 121 -12 136 -6 21 -2 29 19 43 50 33 56 19 57 -127 1 -259 29 -281
36 -29 5 160 15 201 48 201 9 0 20 -11 26 -24z m440 -25 c23 -18 24 -25 21
-120 -5 -181 -24 -282 -49 -257 -5 4 -10 52 -11 106 -4 90 -5 97 -22 93 -14
-4 -21 2 -26 21 -11 45 1 134 21 156 23 25 36 25 66 1z m97 -63 c7 -7 12 -24
12 -39 0 -34 -29 -48 -47 -23 -16 22 -16 30 -3 55 12 22 21 24 38 7z m35 -143
c7 -19 5 -53 -7 -110 -22 -116 -53 -189 -97 -234 -20 -22 -40 -49 -44 -61 -4
-13 -13 -20 -23 -18 -14 3 -17 16 -16 71 1 78 12 96 48 79 33 -15 41 -3 56 78
6 36 18 80 26 99 8 19 14 51 12 71 -3 63 27 81 45 25z m-1009 -51 c9 -25 7
-74 -4 -74 -14 0 -30 35 -30 64 0 29 24 36 34 10z m639 -141 c-1 -91 -15 -132
-39 -112 -9 8 -14 32 -14 74 0 77 16 127 39 123 13 -3 16 -17 14 -85z m-249
-219 c11 -30 -4 -64 -30 -64 -34 0 -51 36 -28 61 21 23 50 25 58 3z m79 -34
c7 -27 -3 -99 -15 -107 -22 -13 -38 68 -22 111 9 22 31 20 37 -4z m-299 -6
c19 -7 20 -27 4 -55 -12 -18 -9 -23 16 -44 24 -19 30 -31 29 -61 -1 -41 -14
-59 -36 -51 -15 5 -67 146 -67 179 0 9 8 22 18 27 21 13 17 12 36 5z m473 -76
c-7 -100 -23 -158 -42 -158 -12 0 -15 16 -15 76 0 102 16 164 43 164 19 0 20
-4 14 -82z m250 1 c-7 -56 -22 -89 -42 -89 -35 0 -24 118 13 139 27 15 35 1
29 -50z m-347 -20 c0 -65 -12 -99 -35 -99 -10 0 -15 10 -15 28 0 39 29 132 40
132 6 0 10 -27 10 -61z m-233 10 c7 -14 15 -51 19 -83 6 -53 5 -58 -12 -54
-14 2 -24 21 -38 69 -19 67 -17 104 7 97 6 -3 17 -16 24 -29z m-27 -245 c12
-36 7 -54 -15 -54 -17 0 -25 22 -25 72 0 34 2 39 14 28 8 -6 20 -27 26 -46z
m318 -15 c-1 -13 -10 -24 -18 -24 -19 0 -26 45 -8 56 18 11 30 -4 26 -32z"/>
<path d="M965 6871 c-9 -15 21 -20 200 -31 94 -5 190 -12 215 -15 36 -4 40 -3
20 5 -34 13 -312 50 -376 50 -29 0 -55 -4 -59 -9z"/>
<path d="M306 6853 c-4 -9 0 -23 7 -31 12 -11 14 -9 13 17 -1 34 -10 40 -20
14z"/>
<path d="M759 6651 l-23 -18 27 -18 c33 -21 99 -16 128 11 30 27 23 36 -25 29
-28 -5 -46 -3 -50 4 -10 16 -31 13 -57 -8z"/>
<path d="M11778 6623 c6 -2 18 -2 25 0 6 3 1 5 -13 5 -14 0 -19 -2 -12 -5z"/>
<path d="M11606 6591 c-44 -10 -82 -23 -84 -31 -4 -10 3 -11 24 -6 62 15 164
47 164 51 0 7 -15 5 -104 -14z"/>
<path d="M11740 6550 c-12 -8 -9 -10 13 -10 16 0 26 4 22 10 -8 12 -16 12 -35
0z"/>
<path d="M11285 6083 c-35 -9 -38 -21 -7 -28 21 -4 42 0 69 14 l38 20 -40 -1
c-22 0 -49 -2 -60 -5z"/>
<path d="M11329 5940 c-52 -9 -89 -26 -89 -40 0 -6 204 -10 553 -9 381 0 544
3 527 10 -14 6 -115 15 -225 21 -233 11 -224 11 -426 2 -129 -5 -166 -4 -211
10 -61 17 -61 17 -129 6z"/>
<path d="M11173 5813 c9 -2 23 -2 30 0 6 3 -1 5 -18 5 -16 0 -22 -2 -12 -5z"/>
<path d="M10948 5764 c-16 -8 -28 -19 -28 -24 0 -11 64 -30 102 -30 17 0 31
-8 38 -20 9 -16 21 -20 63 -20 63 1 97 15 131 56 24 29 24 33 9 45 -14 12 -17
11 -27 -5 -25 -44 -45 -56 -93 -56 -48 0 -109 27 -126 56 -10 18 -35 17 -69
-2z"/>
<path d="M10951 5567 c-15 -19 -4 -27 36 -27 37 0 43 14 14 30 -26 13 -36 13
-50 -3z"/>
<path d="M9210 5525 c-14 -17 -5 -35 19 -35 22 0 45 25 36 40 -9 15 -41 12
-55 -5z"/>
<path d="M11025 5470 c-16 -7 -13 -9 18 -9 20 -1 37 4 37 9 0 12 -27 12 -55 0z"/>
<path d="M11088 5413 c-33 -5 -37 -23 -5 -23 33 0 67 11 67 21 0 9 -12 9 -62
2z"/>
<path d="M1103 6153 c9 -2 23 -2 30 0 6 3 -1 5 -18 5 -16 0 -22 -2 -12 -5z"/>
<path d="M1067 6100 c16 -17 158 -27 167 -11 5 8 -15 11 -68 11 -41 0 -83 3
-93 6 -14 6 -16 4 -6 -6z"/>
<path d="M1055 5970 c-10 -31 -35 -37 -195 -44 -80 -4 -190 -12 -245 -18 -118
-12 -167 -32 -60 -24 39 3 180 9 315 12 203 6 259 4 329 -9 134 -26 137 -53 8
-66 -81 -7 -114 -20 -56 -22 124 -3 209 12 209 37 0 17 39 34 81 34 40 0 37
18 -3 22 -21 2 -33 8 -33 18 0 24 -13 28 -146 45 -68 9 -133 18 -144 21 -11 3
-28 8 -37 10 -10 3 -19 -3 -23 -16z"/>
<path d="M1447 5933 c-8 -12 118 -23 253 -22 75 0 90 2 70 11 -35 14 -315 24
-323 11z"/>
<path d="M1675 5840 c3 -5 8 -10 11 -10 2 0 4 5 4 10 0 6 -5 10 -11 10 -5 0
-7 -4 -4 -10z"/>
<path d="M1210 5711 c0 -5 13 -19 30 -31 29 -21 31 -21 60 -3 38 22 38 29 -1
37 -46 9 -89 7 -89 -3z"/>
<path d="M1346 5591 c5 -5 47 -11 94 -13 84 -5 84 -5 35 8 -59 14 -143 18
-129 5z"/>
<path d="M1375 5500 c3 -5 13 -10 21 -10 8 0 14 5 14 10 0 6 -9 10 -21 10 -11
0 -17 -4 -14 -10z"/>
<path d="M1533 5193 c9 -2 25 -2 35 0 9 3 1 5 -18 5 -19 0 -27 -2 -17 -5z"/>
<path d="M1535 5130 c-4 -6 17 -10 57 -10 44 0 59 3 48 10 -20 13 -97 13 -105
0z"/>
<path d="M1816 5071 c-16 -6 -17 -9 -5 -13 20 -8 69 2 69 13 0 11 -37 11 -64
0z"/>
<path d="M1650 4970 l-45 -18 35 -5 c19 -3 55 -8 80 -11 43 -5 44 -5 23 10
-13 9 -23 23 -23 30 0 18 -15 17 -70 -6z"/>
<path d="M3360 4943 c-33 -4 -68 -23 -42 -23 7 0 12 -9 12 -20 0 -11 6 -20 13
-20 30 0 57 14 62 30 3 10 18 23 33 29 27 9 26 9 -8 9 -19 -1 -51 -3 -70 -5z"/>
<path d="M1716 4842 c-8 -14 32 -42 61 -42 36 0 78 19 66 31 -15 15 -119 24
-127 11z"/>
<path d="M3390 4840 c-20 -7 -17 -8 20 -8 25 0 56 4 70 8 20 7 17 8 -20 8 -25
0 -56 -4 -70 -8z"/>
<path d="M4380 4810 c-14 -4 -68 -9 -120 -10 -89 -3 -91 -3 -40 -10 66 -9 331
7 344 20 12 12 -147 12 -184 0z"/>
<path d="M4790 4795 c41 -7 91 -13 110 -13 29 1 27 2 -15 9 -27 4 -77 10 -110
13 -59 5 -58 5 15 -9z"/>
<path d="M2015 4750 c-3 -5 1 -10 9 -10 9 0 16 5 16 10 0 6 -4 10 -9 10 -6 0
-13 -4 -16 -10z"/>
<path d="M3925 4723 c-46 -11 -37 -23 17 -23 67 0 97 8 76 21 -14 9 -59 10
-93 2z"/>
<path d="M4173 4721 c-41 -7 -61 -17 -52 -25 4 -4 144 20 164 28 16 7 -66 4
-112 -3z"/>
<path d="M4535 4700 c-27 -11 -63 -19 -78 -20 -18 0 -26 -4 -21 -11 9 -15 230
-6 287 11 63 19 40 35 -54 37 -62 1 -97 -3 -134 -17z"/>
<path d="M1875 4680 c-17 -7 -14 -9 13 -9 20 -1 31 3 27 9 -7 12 -13 12 -40 0z"/>
<path d="M2025 4551 c-16 -6 -9 -10 30 -15 28 -5 65 -14 83 -21 29 -13 32 -13
32 5 0 10 -3 21 -7 23 -16 10 -119 16 -138 8z"/>
<path d="M3760 4370 c-12 -8 -10 -10 8 -10 13 0 20 4 17 10 -7 12 -6 12 -25 0z"/>
<path d="M2192 4248 c8 -23 50 -38 72 -26 20 11 20 12 -9 24 -39 17 -68 17
-63 2z"/>
<path d="M2345 4181 c-33 -10 -93 -32 -134 -49 -40 -18 -80 -32 -88 -32 -8 0
-38 -11 -66 -24 -29 -13 -70 -29 -92 -36 -22 -7 -101 -40 -175 -73 -74 -32
-157 -68 -185 -79 -54 -21 -72 -34 -63 -44 4 -3 33 8 65 25 32 17 103 47 158
66 55 20 132 49 170 65 39 16 95 38 125 48 382 135 425 153 370 151 -14 0 -52
-8 -85 -18z"/>
<path d="M3268 3853 c6 -2 18 -2 25 0 6 3 1 5 -13 5 -14 0 -19 -2 -12 -5z"/>
<path d="M3495 3795 c-49 -14 -112 -25 -140 -25 -38 0 -46 -3 -33 -11 12 -7
47 -5 113 6 52 8 122 15 155 15 66 0 78 12 29 29 -18 6 -32 11 -33 10 -1 0
-41 -11 -91 -24z"/>
<path d="M2810 3587 c-19 -7 -33 -16 -30 -22 6 -13 158 -6 185 8 19 10 19 10
0 18 -30 12 -116 9 -155 -4z"/>
<path d="M3325 3520 c-18 -8 -18 -9 5 -8 14 0 36 4 50 8 24 8 24 8 -5 8 -16 0
-39 -3 -50 -8z"/>
<path d="M3986 5275 c10 -8 26 -14 34 -14 9 0 4 6 -10 14 -33 19 -49 19 -24 0z"/>
<path d="M10820 5177 c-29 -15 -38 -52 -15 -61 20 -7 107 11 131 28 10 8 15
20 11 30 -8 20 -89 22 -127 3z"/>
<path d="M10598 4971 c-67 -24 -67 -28 -4 -36 37 -5 72 -18 101 -37 l45 -30
91 17 c75 13 109 15 197 6 59 -5 186 -15 282 -21 96 -5 229 -14 295 -20 254
-20 299 -22 378 -14 l82 8 -50 7 c-27 4 -95 8 -150 8 -55 1 -140 6 -190 11
-49 5 -164 14 -255 20 -356 21 -540 43 -629 75 -79 29 -127 30 -193 6z"/>
<path d="M9155 4891 c-34 -7 -26 -15 25 -26 19 -4 52 -16 72 -28 31 -17 40
-18 53 -7 16 13 20 46 8 53 -16 9 -129 15 -158 8z"/>
<path d="M10572 4803 c-35 -8 -61 -17 -58 -20 6 -7 147 17 166 28 24 14 -36 9
-108 -8z"/>
<path d="M10551 4699 c-128 -28 -149 -34 -140 -43 6 -6 287 39 295 46 7 8 -4
28 -14 27 -4 0 -67 -14 -141 -30z"/>
<path d="M12017 4693 c-12 -11 -8 -23 8 -23 8 0 15 7 15 15 0 16 -12 20 -23 8z"/>
<path d="M6115 5070 c-12 -18 -42 -196 -50 -290 -8 -103 11 -45 40 122 27 148
30 198 10 168z"/>
<path d="M6316 5032 c-2 -4 0 -28 4 -53 5 -25 11 -97 15 -160 3 -63 8 -130 11
-149 5 -30 7 -32 16 -16 12 21 1 326 -13 363 -8 23 -24 30 -33 15z"/>
<path d="M6206 4976 c-9 -60 -2 -273 8 -284 15 -15 17 20 9 175 -8 152 -10
162 -17 109z"/>
<path d="M6437 5014 c-10 -10 -9 -73 3 -135 20 -109 73 -298 82 -292 12 7 1
101 -18 155 -7 21 -21 89 -30 151 -15 109 -23 134 -37 121z"/>
<path d="M5776 4813 c-19 -55 -22 -113 -5 -96 10 10 25 56 36 116 9 45 -14 31
-31 -20z"/>
<path d="M6115 4278 c-9 -23 -2 -83 10 -83 14 0 19 75 6 88 -7 7 -12 5 -16 -5z"/>
<path d="M6236 2518 c-11 -43 -7 -120 7 -116 7 3 13 29 15 71 3 65 -9 90 -22
45z"/>
<path d="M8470 4728 l-25 -10 30 -14 c34 -15 212 -19 233 -5 9 5 -25 14 -92
25 -120 18 -113 18 -146 4z"/>
<path d="M10300 4453 c-78 -7 -199 -37 -204 -49 -8 -22 29 -26 75 -8 24 9 77
24 117 33 40 9 70 20 66 24 -4 4 -10 6 -13 5 -3 0 -22 -3 -41 -5z"/>
<path d="M10390 4374 c-101 -23 -149 -44 -102 -44 30 0 212 36 245 49 76 29
-6 27 -143 -5z"/>
<path d="M10215 3551 c-3 -5 -1 -12 5 -16 5 -3 10 -15 10 -26 0 -21 12 -23 90
-19 25 1 49 5 53 9 4 5 -25 20 -65 35 -82 29 -84 30 -93 17z"/>
<path d="M10035 3480 c-11 -18 5 -30 41 -30 22 0 34 5 34 14 0 24 -62 37 -75
16z"/>
<path d="M9820 3031 c0 -5 43 -28 97 -52 53 -24 123 -63 157 -86 33 -24 71
-43 85 -43 15 0 58 -12 96 -26 39 -14 113 -40 166 -59 206 -73 494 -219 647
-327 24 -16 46 -27 49 -24 11 10 -57 74 -130 123 -73 48 -428 212 -569 261
-115 41 -161 65 -182 96 -13 20 -25 26 -54 26 -57 0 -138 27 -229 76 -75 41
-133 56 -133 35z"/>
<path d="M9367 2463 c-12 -11 14 -33 39 -33 29 0 31 15 5 30 -23 12 -35 13
-44 3z"/>
<path d="M8050 2120 c0 -5 16 -27 35 -48 19 -21 48 -69 65 -107 17 -37 33 -66
35 -63 7 6 -17 72 -45 129 -33 65 -90 122 -90 89z"/>
<path d="M8846 2043 c26 -49 55 -97 64 -108 10 -11 66 -92 124 -180 59 -88
125 -186 147 -217 68 -96 126 -219 191 -398 52 -147 108 -241 108 -183 0 9
-20 60 -44 112 -24 53 -68 153 -96 223 -56 138 -166 334 -258 462 -33 45 -96
137 -142 206 -45 69 -92 135 -103 148 -40 44 -37 20 9 -65z"/>
<path d="M9600 2075 c0 -8 2 -15 4 -15 2 0 11 -3 20 -6 10 -4 16 -1 16 9 0 8
-7 18 -16 21 -22 9 -24 8 -24 -9z"/>
<path d="M9360 2044 c0 -3 18 -31 40 -63 22 -31 40 -66 40 -78 0 -25 -44 -63
-71 -63 -11 0 -19 -5 -19 -11 0 -12 51 -34 103 -43 33 -6 38 -4 47 19 5 14 12
25 14 25 6 0 71 -88 199 -265 44 -60 95 -127 114 -149 19 -21 42 -55 50 -75 8
-20 24 -49 36 -64 11 -16 39 -65 62 -110 48 -92 65 -106 65 -53 0 52 -22 98
-72 153 -24 27 -70 86 -102 133 -31 47 -79 112 -104 146 -26 33 -84 114 -129
180 -123 178 -273 353 -273 318z"/>
<path d="M9510 1997 c0 -14 19 -37 32 -37 16 0 7 30 -12 40 -15 8 -20 8 -20
-3z"/>
<path d="M8293 1942 c-9 -14 -12 -15 -27 -3 -14 12 -16 10 -16 -20 0 -19 5
-41 10 -49 9 -13 12 -13 25 4 20 26 41 14 55 -31 14 -44 30 -65 30 -40 0 20
-49 145 -59 151 -4 3 -12 -3 -18 -12z"/>
<path d="M8487 1863 c-7 -11 52 -163 64 -163 8 0 -31 124 -49 156 -5 9 -12 12
-15 7z"/>
<path d="M8560 1831 c0 -6 4 -13 10 -16 6 -3 7 1 4 9 -7 18 -14 21 -14 7z"/>
<path d="M8430 1766 c0 -8 4 -17 9 -20 5 -4 7 3 4 14 -6 23 -13 26 -13 6z"/>
<path d="M8621 1730 c14 -31 19 -36 19 -24 0 6 -7 19 -16 30 -14 18 -14 18 -3
-6z"/>
<path d="M9240 1742 c0 -15 28 -47 35 -40 8 8 -13 48 -25 48 -6 0 -10 -4 -10
-8z"/>
<path d="M8730 1696 c0 -8 5 -18 10 -21 6 -3 10 1 10 9 0 8 -4 18 -10 21 -5 3
-10 -1 -10 -9z"/>
<path d="M8920 1682 c0 -10 7 -27 15 -38 14 -19 14 -19 15 3 0 28 -10 53 -21
53 -5 0 -9 -8 -9 -18z"/>
<path d="M8308 4203 c12 -2 32 -2 45 0 12 2 2 4 -23 4 -25 0 -35 -2 -22 -4z"/>
<path d="M3520 3195 c-7 -8 -8 -15 -2 -15 5 0 15 7 22 15 7 8 8 15 2 15 -5 0
-15 -7 -22 -15z"/>
<path d="M3300 3166 c-130 -65 -186 -100 -167 -104 10 -2 26 3 35 10 9 8 51
31 92 51 73 36 135 77 115 76 -5 0 -39 -15 -75 -33z"/>
<path d="M3404 3121 c-17 -10 -64 -49 -105 -86 -41 -37 -106 -92 -146 -122
-61 -46 -143 -143 -143 -168 0 -14 65 33 102 75 22 25 70 70 107 100 193 158
294 267 185 201z"/>
<path d="M2314 2695 c-18 -14 -17 -15 11 -9 37 8 57 24 29 24 -11 0 -29 -7
-40 -15z"/>
<path d="M2230 2655 c-14 -8 -32 -15 -40 -15 -15 0 -71 -39 -57 -40 12 0 137
58 137 64 0 9 -13 6 -40 -9z"/>
<path d="M2895 2659 c-4 -6 -5 -13 -2 -16 7 -7 27 6 27 18 0 12 -17 12 -25 -2z"/>
<path d="M2704 2613 l-18 -28 24 16 c26 17 38 39 22 39 -5 0 -18 -12 -28 -27z"/>
<path d="M3466 2530 c-69 -46 -242 -193 -275 -234 -30 -37 -1 -20 104 59 103
77 268 224 253 225 -3 0 -40 -23 -82 -50z"/>
<path d="M2035 2560 c-3 -5 -2 -10 4 -10 5 0 13 5 16 10 3 6 2 10 -4 10 -5 0
-13 -4 -16 -10z"/>
<path d="M1900 2490 c-13 -8 -13 -10 2 -10 9 0 20 5 23 10 8 13 -5 13 -25 0z"/>
<path d="M2625 2412 c-22 -16 -48 -39 -59 -50 l-18 -21 33 9 c38 11 93 62 88
79 -3 8 -19 1 -44 -17z"/>
<path d="M1682 2370 c-33 -21 -42 -40 -18 -40 25 0 46 12 56 31 15 27 -2 31
-38 9z"/>
<path d="M2490 2299 c-22 -18 -22 -19 -3 -10 12 6 25 16 28 21 9 15 3 12 -25
-11z"/>
<path d="M2209 2201 c-13 -11 -21 -22 -18 -25 3 -3 16 5 29 19 28 30 22 33
-11 6z"/>
<path d="M2265 2126 c-50 -45 -58 -72 -11 -41 27 18 82 85 69 85 -4 0 -30 -20
-58 -44z"/>
<path d="M3050 2155 c-11 -13 -9 -15 15 -15 16 0 25 5 23 12 -7 19 -24 20 -38
3z"/>
<path d="M2946 2069 c-28 -33 -43 -76 -31 -87 4 -4 10 -1 12 6 3 7 20 31 39
53 19 23 34 45 34 50 0 19 -29 8 -54 -22z"/>
<path d="M3220 2025 c-7 -9 -11 -18 -8 -20 9 -10 38 7 38 21 0 18 -14 18 -30
-1z"/>
<path d="M2794 1924 c-35 -36 -45 -68 -20 -58 14 5 76 78 76 88 0 16 -26 2
-56 -30z"/>
<path d="M3030 1944 c0 -8 5 -12 10 -9 6 3 10 10 10 16 0 5 -4 9 -10 9 -5 0
-10 -7 -10 -16z"/>
<path d="M3539 1695 c-11 -25 -18 -51 -16 -58 5 -12 21 22 37 76 13 42 1 32
-21 -18z"/>
<path d="M3751 1692 c-6 -12 -11 -27 -11 -34 0 -7 7 0 15 16 9 16 13 31 11 33
-2 3 -9 -4 -15 -15z"/>
<path d="M3800 1595 c-7 -9 -10 -18 -7 -21 3 -3 10 4 17 15 13 25 8 27 -10 6z"/>
<path d="M4891 3209 c-13 -28 -20 -53 -17 -57 6 -5 26 39 40 86 13 40 -1 23
-23 -29z"/>
<path d="M4956 3048 c-14 -40 -53 -161 -87 -268 -33 -107 -78 -246 -100 -309
-41 -120 -45 -136 -30 -127 31 19 266 754 248 773 -3 2 -16 -29 -31 -69z"/>
<path d="M5076 2924 c-9 -24 -7 -56 3 -50 12 8 20 55 11 61 -4 3 -11 -2 -14
-11z"/>
<path d="M4457 1734 c-10 -14 -17 -30 -14 -37 2 -7 12 3 21 21 21 41 18 49 -7
16z"/>
<path d="M4314 1698 c-14 -24 -37 -59 -50 -79 -25 -36 -31 -54 -15 -45 9 6
111 153 111 161 0 18 -24 -2 -46 -37z"/>
<path d="M4185 1669 c-4 -6 -5 -12 -2 -15 2 -3 7 2 10 11 7 17 1 20 -8 4z"/>
<path d="M4026 1618 c-26 -37 -19 -57 9 -25 14 15 25 32 25 38 0 16 -18 10
-34 -13z"/>
<path d="M7446 5868 c-34 -39 -47 -78 -27 -78 10 0 56 67 65 98 10 32 2 28
-38 -20z"/>
<path d="M7406 2727 c-22 -75 26 -577 49 -523 5 11 3 56 -5 105 -7 47 -18 167
-25 266 -8 126 -14 171 -19 152z"/>
<path d="M7970 1695 c0 -22 4 -34 10 -30 6 3 10 17 10 30 0 13 -4 27 -10 30
-6 4 -10 -8 -10 -30z"/>
</g>
</svg>
